<?xml version="1.0" encoding="utf-8"?>
<!-- Generator: Adobe Illustrator 17.0.0, SVG Export Plug-In . SVG Version: 6.00 Build 0)  -->
<!DOCTYPE svg PUBLIC "-//W3C//DTD SVG 1.1//EN" "http://www.w3.org/Graphics/SVG/1.1/DTD/svg11.dtd">
<svg version="1.1" id="Layer_1" xmlns="http://www.w3.org/2000/svg" xmlns:xlink="http://www.w3.org/1999/xlink" x="0px" y="0px"
	 width="438.647px" height="289.563px" viewBox="0 0 438.647 289.563" enable-background="new 0 0 438.647 289.563"
	 xml:space="preserve">
<g>
	<path fill="#666766" d="M9.675,20.412h0.829v11.146h5.456v0.72H9.675V20.412z"/>
	<path fill="#666766" d="M23.015,26.858c0.036-1.314-0.342-2.737-2.035-2.737c-1.17,0-2.179,0.576-2.755,1.008l-0.36-0.594
		c0.612-0.432,1.8-1.116,3.205-1.116c2.052,0,2.737,1.476,2.737,3.331v5.528h-0.667l-0.09-1.116h-0.036
		c-0.882,0.702-1.927,1.332-3.061,1.332c-1.368,0-2.521-0.738-2.521-2.376C17.433,28.208,19.18,27.29,23.015,26.858z M20.08,31.809
		c0.99,0,1.872-0.486,2.935-1.404V27.47c-3.547,0.414-4.753,1.243-4.753,2.611C18.261,31.323,19.089,31.809,20.08,31.809z"/>
	<path fill="#666766" d="M26.559,35.482c1.062,0,1.783-0.973,2.214-2.287l0.234-0.756l-3.547-8.805h0.864l2.088,5.438
		c0.27,0.72,0.612,1.657,0.936,2.413h0.072c0.27-0.756,0.558-1.693,0.792-2.413l1.855-5.438h0.81l-3.421,9.723
		c-0.486,1.44-1.351,2.863-2.899,2.863c-0.324,0-0.648-0.072-0.882-0.18l0.18-0.702C26.037,35.41,26.307,35.482,26.559,35.482z"/>
	<path fill="#666766" d="M37.792,23.419c2.053,0,3.313,1.458,3.313,3.997c0,0.216,0,0.432-0.036,0.648h-6.23
		c0.036,2.179,1.314,3.745,3.259,3.745c0.937,0,1.675-0.306,2.323-0.774l0.324,0.612c-0.684,0.415-1.458,0.846-2.719,0.846
		c-2.215,0-3.998-1.692-3.998-4.519S35.865,23.419,37.792,23.419z M40.349,27.452c0-2.215-0.99-3.349-2.539-3.349
		c-1.477,0-2.791,1.278-2.971,3.349H40.349z"/>
	<path fill="#666766" d="M43.442,23.635h0.685l0.072,1.603h0.054c0.576-1.062,1.422-1.818,2.449-1.818
		c0.324,0,0.576,0.036,0.864,0.18l-0.18,0.72c-0.288-0.108-0.45-0.144-0.792-0.144c-0.774,0-1.693,0.594-2.359,2.215v5.888h-0.792
		V23.635z"/>
	<path fill="#666766" d="M57.934,21.474h-6.067v-0.702h7.076v0.468c-2.754,3.655-3.439,6.536-3.619,11.037h-0.864
		C54.639,27.632,55.611,24.715,57.934,21.474z"/>
	<path fill="#666766" d="M9.675,59.912h0.829v11.146h5.456v0.72H9.675V59.912z"/>
	<path fill="#666766" d="M23.015,66.358c0.036-1.314-0.342-2.737-2.035-2.737c-1.17,0-2.179,0.576-2.755,1.008l-0.36-0.594
		c0.612-0.432,1.8-1.116,3.205-1.116c2.052,0,2.737,1.476,2.737,3.331v5.528h-0.667l-0.09-1.116h-0.036
		c-0.882,0.702-1.927,1.332-3.061,1.332c-1.368,0-2.521-0.738-2.521-2.376C17.433,67.708,19.18,66.79,23.015,66.358z M20.08,71.309
		c0.99,0,1.872-0.486,2.935-1.404V66.97c-3.547,0.414-4.753,1.243-4.753,2.611C18.261,70.823,19.089,71.309,20.08,71.309z"/>
	<path fill="#666766" d="M26.559,74.982c1.062,0,1.783-0.973,2.214-2.287l0.234-0.756l-3.547-8.805h0.864l2.088,5.438
		c0.27,0.72,0.612,1.657,0.936,2.413h0.072c0.27-0.756,0.558-1.693,0.792-2.413l1.855-5.438h0.81l-3.421,9.723
		c-0.486,1.44-1.351,2.863-2.899,2.863c-0.324,0-0.648-0.072-0.882-0.18l0.18-0.702C26.037,74.91,26.307,74.982,26.559,74.982z"/>
	<path fill="#666766" d="M37.792,62.919c2.053,0,3.313,1.458,3.313,3.997c0,0.216,0,0.432-0.036,0.648h-6.23
		c0.036,2.179,1.314,3.745,3.259,3.745c0.937,0,1.675-0.306,2.323-0.774l0.324,0.612c-0.684,0.415-1.458,0.846-2.719,0.846
		c-2.215,0-3.998-1.692-3.998-4.519S35.865,62.919,37.792,62.919z M40.349,66.952c0-2.215-0.99-3.349-2.539-3.349
		c-1.477,0-2.791,1.278-2.971,3.349H40.349z"/>
	<path fill="#666766" d="M43.442,63.135h0.685l0.072,1.603h0.054c0.576-1.062,1.422-1.818,2.449-1.818
		c0.324,0,0.576,0.036,0.864,0.18l-0.18,0.72c-0.288-0.108-0.45-0.144-0.792-0.144c-0.774,0-1.693,0.594-2.359,2.215v5.888h-0.792
		V63.135z"/>
	<path fill="#666766" d="M58.186,61.712c-0.504-0.63-1.207-0.955-1.945-0.955c-1.818,0-3.385,1.44-3.421,5.672
		c0.792-0.972,1.836-1.603,2.899-1.603c2.017,0,3.205,1.243,3.205,3.565c0,2.088-1.44,3.601-3.151,3.601
		c-2.305,0-3.763-1.944-3.763-5.438c0-4.825,2.017-6.5,4.231-6.5c1.081,0,1.836,0.45,2.431,1.117L58.186,61.712z M58.114,68.393
		c0-1.657-0.738-2.881-2.485-2.881c-0.81,0-1.854,0.468-2.791,1.729c0.144,2.431,1.08,4.069,2.953,4.069
		C57.124,71.309,58.114,70.031,58.114,68.393z"/>
	<path fill="#666766" d="M9.675,99.412h0.829v11.146h5.456v0.72H9.675V99.412z"/>
	<path fill="#666766" d="M23.015,105.858c0.036-1.314-0.342-2.737-2.035-2.737c-1.17,0-2.179,0.576-2.755,1.008l-0.36-0.594
		c0.612-0.432,1.8-1.116,3.205-1.116c2.052,0,2.737,1.476,2.737,3.331v5.528h-0.667l-0.09-1.116h-0.036
		c-0.882,0.702-1.927,1.332-3.061,1.332c-1.368,0-2.521-0.738-2.521-2.376C17.433,107.208,19.18,106.29,23.015,105.858z
		 M20.08,110.809c0.99,0,1.872-0.486,2.935-1.404v-2.935c-3.547,0.414-4.753,1.243-4.753,2.611
		C18.261,110.323,19.089,110.809,20.08,110.809z"/>
	<path fill="#666766" d="M26.559,114.482c1.062,0,1.783-0.973,2.214-2.287l0.234-0.756l-3.547-8.805h0.864l2.088,5.438
		c0.27,0.72,0.612,1.657,0.936,2.413h0.072c0.27-0.756,0.558-1.693,0.792-2.413l1.855-5.438h0.81l-3.421,9.723
		c-0.486,1.44-1.351,2.863-2.899,2.863c-0.324,0-0.648-0.072-0.882-0.18l0.18-0.702C26.037,114.41,26.307,114.482,26.559,114.482z"
		/>
	<path fill="#666766" d="M37.792,102.419c2.053,0,3.313,1.458,3.313,3.997c0,0.216,0,0.432-0.036,0.648h-6.23
		c0.036,2.179,1.314,3.745,3.259,3.745c0.937,0,1.675-0.306,2.323-0.774l0.324,0.612c-0.684,0.415-1.458,0.846-2.719,0.846
		c-2.215,0-3.998-1.692-3.998-4.519S35.865,102.419,37.792,102.419z M40.349,106.452c0-2.215-0.99-3.349-2.539-3.349
		c-1.477,0-2.791,1.278-2.971,3.349H40.349z"/>
	<path fill="#666766" d="M43.442,102.635h0.685l0.072,1.603h0.054c0.576-1.062,1.422-1.818,2.449-1.818
		c0.324,0,0.576,0.036,0.864,0.18l-0.18,0.72c-0.288-0.108-0.45-0.144-0.792-0.144c-0.774,0-1.693,0.594-2.359,2.215v5.888h-0.792
		V102.635z"/>
	<path fill="#666766" d="M51.992,109.387c0.684,0.702,1.584,1.404,3.151,1.404c1.53,0,2.863-1.242,2.863-3.097
		s-1.099-2.971-2.809-2.971c-0.882,0-1.458,0.306-2.143,0.774l-0.558-0.342l0.414-5.383h5.312v0.702H53.63l-0.36,4.159
		c0.594-0.36,1.206-0.612,2.053-0.612c1.944,0,3.511,1.117,3.511,3.637c0,2.449-1.818,3.835-3.673,3.835
		c-1.837,0-2.881-0.81-3.619-1.548L51.992,109.387z"/>
	<path fill="#666766" d="M9.675,138.912h0.829v11.146h5.456v0.72H9.675V138.912z"/>
	<path fill="#666766" d="M23.015,145.358c0.036-1.314-0.342-2.737-2.035-2.737c-1.17,0-2.179,0.576-2.755,1.008l-0.36-0.594
		c0.612-0.432,1.8-1.116,3.205-1.116c2.052,0,2.737,1.476,2.737,3.331v5.528h-0.667l-0.09-1.116h-0.036
		c-0.882,0.702-1.927,1.332-3.061,1.332c-1.368,0-2.521-0.738-2.521-2.376C17.433,146.708,19.18,145.79,23.015,145.358z
		 M20.08,150.309c0.99,0,1.872-0.486,2.935-1.404v-2.935c-3.547,0.414-4.753,1.243-4.753,2.611
		C18.261,149.823,19.089,150.309,20.08,150.309z"/>
	<path fill="#666766" d="M26.559,153.982c1.062,0,1.783-0.973,2.214-2.287l0.234-0.756l-3.547-8.805h0.864l2.088,5.438
		c0.27,0.72,0.612,1.657,0.936,2.413h0.072c0.27-0.756,0.558-1.693,0.792-2.413l1.855-5.438h0.81l-3.421,9.723
		c-0.486,1.44-1.351,2.863-2.899,2.863c-0.324,0-0.648-0.072-0.882-0.18l0.18-0.702C26.037,153.91,26.307,153.982,26.559,153.982z"
		/>
	<path fill="#666766" d="M37.792,141.919c2.053,0,3.313,1.458,3.313,3.997c0,0.216,0,0.432-0.036,0.648h-6.23
		c0.036,2.179,1.314,3.745,3.259,3.745c0.937,0,1.675-0.306,2.323-0.774l0.324,0.612c-0.684,0.415-1.458,0.846-2.719,0.846
		c-2.215,0-3.998-1.692-3.998-4.519S35.865,141.919,37.792,141.919z M40.349,145.952c0-2.215-0.99-3.349-2.539-3.349
		c-1.477,0-2.791,1.278-2.971,3.349H40.349z"/>
	<path fill="#666766" d="M43.442,142.135h0.685l0.072,1.603h0.054c0.576-1.062,1.422-1.818,2.449-1.818
		c0.324,0,0.576,0.036,0.864,0.18l-0.18,0.72c-0.288-0.108-0.45-0.144-0.792-0.144c-0.774,0-1.693,0.594-2.359,2.215v5.888h-0.792
		V142.135z"/>
	<path fill="#666766" d="M59.14,147.338h-1.71v3.439h-0.774v-3.439h-5.293v-0.468l5.348-7.598h0.72v7.382h1.71V147.338z
		 M56.655,146.654v-4.213c0-0.522,0.036-1.458,0.072-1.98h-0.072c-0.288,0.486-0.612,0.918-0.936,1.44l-3.385,4.753H56.655z"/>
	<path fill="#666766" d="M9.675,178.412h0.829v11.146h5.456v0.72H9.675V178.412z"/>
	<path fill="#666766" d="M23.015,184.858c0.036-1.314-0.342-2.737-2.035-2.737c-1.17,0-2.179,0.576-2.755,1.008l-0.36-0.594
		c0.612-0.432,1.8-1.116,3.205-1.116c2.052,0,2.737,1.476,2.737,3.331v5.528h-0.667l-0.09-1.116h-0.036
		c-0.882,0.702-1.927,1.332-3.061,1.332c-1.368,0-2.521-0.738-2.521-2.376C17.433,186.208,19.18,185.29,23.015,184.858z
		 M20.08,189.809c0.99,0,1.872-0.486,2.935-1.404v-2.935c-3.547,0.414-4.753,1.243-4.753,2.611
		C18.261,189.323,19.089,189.809,20.08,189.809z"/>
	<path fill="#666766" d="M26.559,193.482c1.062,0,1.783-0.973,2.214-2.287l0.234-0.756l-3.547-8.805h0.864l2.088,5.438
		c0.27,0.72,0.612,1.657,0.936,2.413h0.072c0.27-0.756,0.558-1.693,0.792-2.413l1.855-5.438h0.81l-3.421,9.723
		c-0.486,1.44-1.351,2.863-2.899,2.863c-0.324,0-0.648-0.072-0.882-0.18l0.18-0.702C26.037,193.41,26.307,193.482,26.559,193.482z"
		/>
	<path fill="#666766" d="M37.792,181.419c2.053,0,3.313,1.458,3.313,3.997c0,0.216,0,0.432-0.036,0.648h-6.23
		c0.036,2.179,1.314,3.745,3.259,3.745c0.937,0,1.675-0.306,2.323-0.774l0.324,0.612c-0.684,0.415-1.458,0.846-2.719,0.846
		c-2.215,0-3.998-1.692-3.998-4.519S35.865,181.419,37.792,181.419z M40.349,185.452c0-2.215-0.99-3.349-2.539-3.349
		c-1.477,0-2.791,1.278-2.971,3.349H40.349z"/>
	<path fill="#666766" d="M43.442,181.635h0.685l0.072,1.603h0.054c0.576-1.062,1.422-1.818,2.449-1.818
		c0.324,0,0.576,0.036,0.864,0.18l-0.18,0.72c-0.288-0.108-0.45-0.144-0.792-0.144c-0.774,0-1.693,0.594-2.359,2.215v5.888h-0.792
		V181.635z"/>
	<path fill="#666766" d="M52.064,188.315c0.684,0.756,1.603,1.476,3.187,1.476c1.548,0,2.683-1.008,2.683-2.539
		c0-1.584-1.152-2.665-4.015-2.665v-0.703c2.665,0,3.601-1.116,3.601-2.502c0-1.296-0.918-2.143-2.323-2.143
		c-1.062,0-1.98,0.558-2.646,1.26l-0.468-0.54c0.792-0.774,1.783-1.405,3.115-1.405c1.783,0,3.151,1.008,3.151,2.773
		c0,1.513-0.936,2.413-2.196,2.845v0.072c1.422,0.306,2.611,1.368,2.611,2.989c0,1.999-1.531,3.259-3.511,3.259
		c-1.836,0-2.917-0.846-3.655-1.62L52.064,188.315z"/>
	<path fill="#666766" d="M9.675,217.912h0.829v11.146h5.456v0.72H9.675V217.912z"/>
	<path fill="#666766" d="M23.015,224.358c0.036-1.314-0.342-2.737-2.035-2.737c-1.17,0-2.179,0.576-2.755,1.008l-0.36-0.594
		c0.612-0.432,1.8-1.116,3.205-1.116c2.052,0,2.737,1.476,2.737,3.331v5.528h-0.667l-0.09-1.116h-0.036
		c-0.882,0.702-1.927,1.332-3.061,1.332c-1.368,0-2.521-0.738-2.521-2.376C17.433,225.708,19.18,224.79,23.015,224.358z
		 M20.08,229.309c0.99,0,1.872-0.486,2.935-1.404v-2.935c-3.547,0.414-4.753,1.243-4.753,2.611
		C18.261,228.823,19.089,229.309,20.08,229.309z"/>
	<path fill="#666766" d="M26.559,232.982c1.062,0,1.783-0.973,2.214-2.287l0.234-0.756l-3.547-8.805h0.864l2.088,5.438
		c0.27,0.72,0.612,1.657,0.936,2.413h0.072c0.27-0.756,0.558-1.693,0.792-2.413l1.855-5.438h0.81l-3.421,9.723
		c-0.486,1.44-1.351,2.863-2.899,2.863c-0.324,0-0.648-0.072-0.882-0.18l0.18-0.702C26.037,232.91,26.307,232.982,26.559,232.982z"
		/>
	<path fill="#666766" d="M37.792,220.919c2.053,0,3.313,1.458,3.313,3.997c0,0.216,0,0.432-0.036,0.648h-6.23
		c0.036,2.179,1.314,3.745,3.259,3.745c0.937,0,1.675-0.306,2.323-0.774l0.324,0.612c-0.684,0.415-1.458,0.846-2.719,0.846
		c-2.215,0-3.998-1.692-3.998-4.519S35.865,220.919,37.792,220.919z M40.349,224.952c0-2.215-0.99-3.349-2.539-3.349
		c-1.477,0-2.791,1.278-2.971,3.349H40.349z"/>
	<path fill="#666766" d="M43.442,221.135h0.685l0.072,1.603h0.054c0.576-1.062,1.422-1.818,2.449-1.818
		c0.324,0,0.576,0.036,0.864,0.18l-0.18,0.72c-0.288-0.108-0.45-0.144-0.792-0.144c-0.774,0-1.693,0.594-2.359,2.215v5.888h-0.792
		V221.135z"/>
	<path fill="#666766" d="M51.812,229.273c3.781-3.835,5.671-5.978,5.671-7.977c0-1.44-0.774-2.557-2.502-2.557
		c-1.044,0-1.98,0.648-2.683,1.512l-0.522-0.504c0.864-0.955,1.873-1.693,3.277-1.693c2.053,0,3.241,1.278,3.241,3.223
		c0,2.287-2.089,4.483-5.275,7.868c0.63-0.036,1.296-0.09,1.926-0.09h3.925v0.72h-7.058V229.273z"/>
	<path fill="#666766" d="M9.675,257.412h0.829v11.146h5.456v0.72H9.675V257.412z"/>
	<path fill="#666766" d="M23.015,263.857c0.036-1.314-0.342-2.736-2.035-2.736c-1.17,0-2.179,0.576-2.755,1.008l-0.36-0.594
		c0.612-0.433,1.8-1.116,3.205-1.116c2.052,0,2.737,1.477,2.737,3.331v5.527h-0.667l-0.09-1.116h-0.036
		c-0.882,0.702-1.927,1.332-3.061,1.332c-1.368,0-2.521-0.738-2.521-2.377C17.433,265.208,19.18,264.29,23.015,263.857z
		 M20.08,268.81c0.99,0,1.872-0.486,2.935-1.404v-2.936c-3.547,0.414-4.753,1.242-4.753,2.611
		C18.261,268.323,19.089,268.81,20.08,268.81z"/>
	<path fill="#666766" d="M26.559,272.482c1.062,0,1.783-0.973,2.214-2.287l0.234-0.756l-3.547-8.805h0.864l2.088,5.438
		c0.27,0.721,0.612,1.656,0.936,2.413h0.072c0.27-0.757,0.558-1.692,0.792-2.413l1.855-5.438h0.81l-3.421,9.723
		c-0.486,1.44-1.351,2.863-2.899,2.863c-0.324,0-0.648-0.072-0.882-0.181l0.18-0.702C26.037,272.41,26.307,272.482,26.559,272.482z"
		/>
	<path fill="#666766" d="M37.792,260.419c2.053,0,3.313,1.458,3.313,3.997c0,0.216,0,0.432-0.036,0.648h-6.23
		c0.036,2.179,1.314,3.745,3.259,3.745c0.937,0,1.675-0.307,2.323-0.774l0.324,0.612c-0.684,0.414-1.458,0.846-2.719,0.846
		c-2.215,0-3.998-1.692-3.998-4.52C34.028,262.147,35.865,260.419,37.792,260.419z M40.349,264.452c0-2.215-0.99-3.35-2.539-3.35
		c-1.477,0-2.791,1.278-2.971,3.35H40.349z"/>
	<path fill="#666766" d="M43.442,260.635h0.685l0.072,1.603h0.054c0.576-1.062,1.422-1.818,2.449-1.818
		c0.324,0,0.576,0.036,0.864,0.18l-0.18,0.721c-0.288-0.108-0.45-0.145-0.792-0.145c-0.774,0-1.693,0.595-2.359,2.215v5.888h-0.792
		V260.635z"/>
	<path fill="#666766" d="M52.586,268.575h2.701v-9.543h-2.053v-0.54c0.937-0.162,1.674-0.414,2.215-0.721h0.648v10.804H58.6v0.702
		h-6.014V268.575z"/>
</g>
<g>
	<path fill="#68C28C" d="M428.773,37.536c0,2.772-2.268,5.04-5.04,5.04H85.124c-2.772,0-5.04-2.268-5.04-5.04V14.003
		c0-2.772,2.268-5.04,5.04-5.04h338.609c2.772,0,5.04,2.268,5.04,5.04V37.536z"/>
</g>
<g>
	<path fill="#53A3D8" d="M428.773,77.136c0,2.772-2.268,5.04-5.04,5.04H85.124c-2.772,0-5.04-2.268-5.04-5.04V53.603
		c0-2.772,2.268-5.04,5.04-5.04h338.609c2.772,0,5.04,2.268,5.04,5.04V77.136z"/>
</g>
<g>
	<path fill="#53A3D8" d="M428.773,116.736c0,2.772-2.268,5.04-5.04,5.04H85.124c-2.772,0-5.04-2.268-5.04-5.04V93.203
		c0-2.772,2.268-5.04,5.04-5.04h338.609c2.772,0,5.04,2.268,5.04,5.04V116.736z"/>
</g>
<g>
	<path fill="#53A3D8" d="M428.773,156.336c0,2.772-2.268,5.04-5.04,5.04H85.124c-2.772,0-5.04-2.268-5.04-5.04v-23.533
		c0-2.772,2.268-5.04,5.04-5.04h338.609c2.772,0,5.04,2.268,5.04,5.04V156.336z"/>
</g>
<g>
	<path fill="#F15E6B" d="M428.773,195.936c0,2.772-2.268,5.04-5.04,5.04H85.124c-2.772,0-5.04-2.268-5.04-5.04v-23.533
		c0-2.772,2.268-5.04,5.04-5.04h338.609c2.772,0,5.04,2.268,5.04,5.04V195.936z"/>
</g>
<g>
	<path fill="#F15E6B" d="M428.773,235.536c0,2.772-2.268,5.04-5.04,5.04H85.124c-2.772,0-5.04-2.268-5.04-5.04v-23.533
		c0-2.772,2.268-5.04,5.04-5.04h338.609c2.772,0,5.04,2.268,5.04,5.04V235.536z"/>
</g>
<g>
	<path fill="#F15E6B" d="M428.773,275.136c0,2.772-2.268,5.04-5.04,5.04H85.124c-2.772,0-5.04-2.268-5.04-5.04v-23.533
		c0-2.772,2.268-5.04,5.04-5.04h338.609c2.772,0,5.04,2.268,5.04,5.04V275.136z"/>
</g>
<g>
	<path fill="#FFFFFF" d="M98.987,27.208h-4.699l-1.386,4.069h-0.847l4.195-11.866h0.829l4.177,11.866h-0.882L98.987,27.208z
		 M98.753,26.506l-0.756-2.215c-0.468-1.404-0.9-2.646-1.314-4.105H96.61c-0.414,1.458-0.828,2.701-1.314,4.105l-0.756,2.215H98.753
		z"/>
	<path fill="#FFFFFF" d="M103.773,32.034v3.151h-0.792v-12.55h0.684l0.072,1.08h0.054c0.846-0.666,1.873-1.296,2.935-1.296
		c2.305,0,3.457,1.729,3.457,4.411c0,2.935-1.783,4.663-3.817,4.663c-0.81,0-1.692-0.396-2.593-1.062V32.034z M106.33,30.791
		c1.747,0,3.007-1.62,3.007-3.961c0-2.125-0.756-3.709-2.737-3.709c-0.864,0-1.782,0.504-2.827,1.422v5.131
		C104.764,30.485,105.664,30.791,106.33,30.791z"/>
	<path fill="#FFFFFF" d="M113.565,32.034v3.151h-0.792v-12.55h0.684l0.072,1.08h0.054c0.846-0.666,1.873-1.296,2.935-1.296
		c2.305,0,3.457,1.729,3.457,4.411c0,2.935-1.783,4.663-3.817,4.663c-0.81,0-1.692-0.396-2.593-1.062V32.034z M116.122,30.791
		c1.747,0,3.007-1.62,3.007-3.961c0-2.125-0.756-3.709-2.737-3.709c-0.864,0-1.782,0.504-2.827,1.422v5.131
		C114.556,30.485,115.456,30.791,116.122,30.791z"/>
	<path fill="#FFFFFF" d="M122.565,18.332h0.792v11.901c0,0.378,0.162,0.558,0.378,0.558c0.072,0,0.144,0,0.324-0.036l0.144,0.648
		c-0.162,0.054-0.324,0.09-0.576,0.09c-0.702,0-1.062-0.432-1.062-1.368V18.332z"/>
	<path fill="#FFFFFF" d="M126.525,19.844c0-0.45,0.324-0.72,0.72-0.72c0.396,0,0.72,0.27,0.72,0.72c0,0.414-0.324,0.702-0.72,0.702
		C126.849,20.546,126.525,20.258,126.525,19.844z M126.831,22.635h0.792v8.643h-0.792V22.635z"/>
	<path fill="#FFFFFF" d="M134.176,22.419c1.188,0,1.963,0.522,2.539,1.062l-0.468,0.558c-0.558-0.522-1.207-0.918-2.053-0.918
		c-1.765,0-3.133,1.566-3.133,3.853c0,2.269,1.242,3.817,3.133,3.817c0.918,0,1.71-0.45,2.305-0.99l0.414,0.54
		c-0.738,0.667-1.656,1.152-2.755,1.152c-2.232,0-3.925-1.656-3.925-4.519C130.232,24.075,132.069,22.419,134.176,22.419z"/>
	<path fill="#FFFFFF" d="M143.95,25.858c0.036-1.314-0.342-2.737-2.035-2.737c-1.17,0-2.179,0.576-2.755,1.008l-0.36-0.594
		c0.612-0.432,1.8-1.116,3.205-1.116c2.052,0,2.737,1.476,2.737,3.331v5.528h-0.667l-0.09-1.116h-0.036
		c-0.882,0.702-1.927,1.332-3.061,1.332c-1.368,0-2.521-0.738-2.521-2.376C138.369,27.208,140.115,26.29,143.95,25.858z
		 M141.016,30.809c0.99,0,1.872-0.486,2.935-1.404V26.47c-3.547,0.414-4.753,1.243-4.753,2.611
		C139.197,30.323,140.025,30.809,141.016,30.809z"/>
	<path fill="#FFFFFF" d="M148.035,23.319h-1.35v-0.612l1.368-0.072l0.108-2.503h0.684v2.503h2.503v0.684h-2.503v5.636
		c0,1.098,0.271,1.836,1.458,1.836c0.324,0,0.774-0.126,1.081-0.27l0.216,0.648c-0.504,0.18-1.044,0.324-1.404,0.324
		c-1.674,0-2.161-1.062-2.161-2.61V23.319z"/>
	<path fill="#FFFFFF" d="M153.146,19.844c0-0.45,0.324-0.72,0.72-0.72c0.396,0,0.72,0.27,0.72,0.72c0,0.414-0.324,0.702-0.72,0.702
		C153.47,20.546,153.146,20.258,153.146,19.844z M153.452,22.635h0.792v8.643h-0.792V22.635z"/>
	<path fill="#FFFFFF" d="M160.726,22.419c2.088,0,3.889,1.656,3.889,4.555c0,2.863-1.801,4.519-3.889,4.519
		c-2.071,0-3.871-1.656-3.871-4.519C156.854,24.075,158.655,22.419,160.726,22.419z M160.726,30.791
		c1.746,0,3.061-1.548,3.061-3.817c0-2.287-1.314-3.853-3.061-3.853c-1.747,0-3.043,1.566-3.043,3.853
		C157.683,29.243,158.979,30.791,160.726,30.791z"/>
	<path fill="#FFFFFF" d="M167.204,22.635h0.685l0.072,1.333h0.054c0.882-0.882,1.782-1.548,2.971-1.548
		c1.783,0,2.611,1.08,2.611,3.312v5.546h-0.792V25.84c0-1.837-0.576-2.701-1.981-2.701c-1.026,0-1.764,0.541-2.827,1.621v6.518
		h-0.792V22.635z"/>
	<path fill="#FFFFFF" d="M180.29,26.272c0-3.169,0.9-5.762,2.377-8.157l0.486,0.288c-1.422,2.269-2.161,5.023-2.161,7.869
		c0,2.845,0.738,5.6,2.161,7.868l-0.486,0.288C181.19,32.034,180.29,29.441,180.29,26.272z"/>
	<path fill="#FFFFFF" d="M185.042,34.482c1.062,0,1.783-0.973,2.214-2.287l0.234-0.756l-3.547-8.805h0.864l2.088,5.438
		c0.27,0.72,0.612,1.657,0.936,2.413h0.072c0.27-0.756,0.558-1.693,0.792-2.413l1.855-5.438h0.81l-3.421,9.723
		c-0.486,1.44-1.351,2.863-2.899,2.863c-0.324,0-0.648-0.072-0.882-0.18l0.18-0.702C184.52,34.41,184.79,34.482,185.042,34.482z"/>
	<path fill="#FFFFFF" d="M196.383,22.419c2.088,0,3.889,1.656,3.889,4.555c0,2.863-1.801,4.519-3.889,4.519
		c-2.071,0-3.871-1.656-3.871-4.519C192.512,24.075,194.312,22.419,196.383,22.419z M196.383,30.791
		c1.746,0,3.061-1.548,3.061-3.817c0-2.287-1.314-3.853-3.061-3.853c-1.747,0-3.043,1.566-3.043,3.853
		C193.34,29.243,194.636,30.791,196.383,30.791z"/>
	<path fill="#FFFFFF" d="M202.735,22.635h0.792v5.438c0,1.837,0.576,2.701,1.962,2.701c1.026,0,1.783-0.541,2.791-1.765v-6.374
		h0.792v8.643h-0.666l-0.09-1.44h-0.036c-0.846,0.99-1.747,1.656-2.935,1.656c-1.782,0-2.611-1.08-2.611-3.312V22.635z"/>
	<path fill="#FFFFFF" d="M213.067,29.855c0.396,0,0.756,0.306,0.756,0.828c0,0.504-0.36,0.81-0.756,0.81
		c-0.396,0-0.774-0.306-0.774-0.81C212.293,30.161,212.671,29.855,213.067,29.855z M212.653,20.492v-1.278h0.828l-0.018,1.278
		l-0.108,7.562h-0.594L212.653,20.492z"/>
	<path fill="#FFFFFF" d="M218.125,26.272c0-2.845-0.738-5.6-2.161-7.869l0.486-0.288c1.476,2.395,2.376,4.988,2.376,8.157
		s-0.9,5.762-2.376,8.156l-0.486-0.288C217.387,31.872,218.125,29.117,218.125,26.272z"/>
	<path fill="#FFFFFF" d="M97.979,58.696c1.387,0,2.449,0.684,3.079,1.422l-0.486,0.54c-0.648-0.72-1.512-1.206-2.593-1.206
		c-2.593,0-4.213,2.07-4.213,5.365s1.603,5.42,4.141,5.42c1.224,0,2.143-0.486,3.007-1.458l0.486,0.522
		c-0.9,1.044-1.981,1.692-3.529,1.692c-2.917,0-4.969-2.395-4.969-6.176C92.901,61.055,94.954,58.696,97.979,58.696z"/>
	<path fill="#FFFFFF" d="M106.816,61.919c2.088,0,3.889,1.656,3.889,4.555c0,2.863-1.801,4.519-3.889,4.519
		c-2.071,0-3.871-1.656-3.871-4.519C102.945,63.575,104.746,61.919,106.816,61.919z M106.816,70.291
		c1.746,0,3.061-1.548,3.061-3.817c0-2.287-1.314-3.853-3.061-3.853c-1.747,0-3.043,1.566-3.043,3.853
		C103.773,68.743,105.07,70.291,106.816,70.291z"/>
	<path fill="#FFFFFF" d="M113.295,62.135h0.685l0.072,1.333h0.054c0.882-0.882,1.782-1.548,2.971-1.548
		c1.783,0,2.611,1.08,2.611,3.312v5.546h-0.792V65.34c0-1.837-0.576-2.701-1.981-2.701c-1.026,0-1.764,0.541-2.827,1.621v6.518
		h-0.792V62.135z"/>
	<path fill="#FFFFFF" d="M123.069,62.819h-1.35v-0.612l1.368-0.072l0.108-2.503h0.684v2.503h2.503v0.684h-2.503v5.636
		c0,1.098,0.271,1.836,1.458,1.836c0.324,0,0.774-0.126,1.081-0.27l0.216,0.648c-0.504,0.18-1.044,0.324-1.404,0.324
		c-1.674,0-2.161-1.062-2.161-2.61V62.819z"/>
	<path fill="#FFFFFF" d="M133.205,65.358c0.036-1.314-0.342-2.737-2.035-2.737c-1.17,0-2.179,0.576-2.755,1.008l-0.36-0.594
		c0.612-0.432,1.8-1.116,3.205-1.116c2.052,0,2.737,1.476,2.737,3.331v5.528h-0.667l-0.09-1.116h-0.036
		c-0.882,0.702-1.926,1.332-3.061,1.332c-1.368,0-2.521-0.738-2.521-2.376C127.623,66.708,129.37,65.79,133.205,65.358z
		 M130.27,70.309c0.991,0,1.873-0.486,2.935-1.404V65.97c-3.547,0.414-4.753,1.243-4.753,2.611
		C128.451,69.823,129.279,70.309,130.27,70.309z"/>
	<path fill="#FFFFFF" d="M136.785,59.344c0-0.45,0.324-0.72,0.72-0.72c0.396,0,0.72,0.27,0.72,0.72c0,0.414-0.324,0.702-0.72,0.702
		C137.109,60.046,136.785,59.758,136.785,59.344z M137.091,62.135h0.792v8.643h-0.792V62.135z"/>
	<path fill="#FFFFFF" d="M141.213,62.135h0.684l0.072,1.333h0.054c0.882-0.882,1.783-1.548,2.971-1.548
		c1.783,0,2.611,1.08,2.611,3.312v5.546h-0.792V65.34c0-1.837-0.576-2.701-1.981-2.701c-1.026,0-1.764,0.541-2.827,1.621v6.518
		h-0.792V62.135z"/>
	<path fill="#FFFFFF" d="M153.832,61.919c2.053,0,3.313,1.458,3.313,3.997c0,0.216,0,0.432-0.036,0.648h-6.23
		c0.036,2.179,1.314,3.745,3.259,3.745c0.937,0,1.675-0.306,2.323-0.774l0.324,0.612c-0.684,0.415-1.458,0.846-2.719,0.846
		c-2.215,0-3.998-1.692-3.998-4.519S151.905,61.919,153.832,61.919z M156.389,65.952c0-2.215-0.99-3.349-2.539-3.349
		c-1.477,0-2.791,1.278-2.971,3.349H156.389z"/>
	<path fill="#FFFFFF" d="M159.482,62.135h0.684l0.072,1.603h0.054c0.576-1.062,1.422-1.818,2.449-1.818
		c0.324,0,0.576,0.036,0.864,0.18l-0.18,0.72c-0.288-0.108-0.45-0.144-0.792-0.144c-0.774,0-1.693,0.594-2.359,2.215v5.888h-0.792
		V62.135z"/>
	<path fill="#FFFFFF" d="M164.396,69.211c0.738,0.612,1.512,1.098,2.755,1.098c1.35,0,2.052-0.792,2.052-1.71
		c0-1.08-1.116-1.548-2.106-1.909c-1.314-0.468-2.755-0.99-2.755-2.466c0-1.261,0.99-2.305,2.791-2.305
		c0.918,0,1.836,0.378,2.467,0.9l-0.432,0.558c-0.576-0.432-1.188-0.774-2.071-0.774c-1.333,0-1.944,0.774-1.944,1.566
		c0,0.954,1.008,1.368,2.034,1.747c1.351,0.504,2.827,0.954,2.827,2.646c0,1.296-1.044,2.431-2.917,2.431
		c-1.278,0-2.395-0.54-3.169-1.188L164.396,69.211z"/>
	<path fill="#FFFFFF" d="M92.901,104.3c0-3.745,2.034-6.104,4.897-6.104c2.845,0,4.879,2.359,4.879,6.104
		c0,3.763-2.035,6.193-4.879,6.193C94.936,110.493,92.901,108.062,92.901,104.3z M101.814,104.3c0-3.277-1.621-5.348-4.015-5.348
		c-2.413,0-4.033,2.07-4.033,5.348c0,3.295,1.62,5.438,4.033,5.438C100.193,109.737,101.814,107.595,101.814,104.3z"/>
	<path fill="#FFFFFF" d="M105.249,101.635h0.685l0.072,1.603h0.054c0.576-1.062,1.422-1.818,2.449-1.818
		c0.324,0,0.576,0.036,0.864,0.18l-0.18,0.72c-0.288-0.108-0.45-0.144-0.792-0.144c-0.774,0-1.693,0.594-2.359,2.215v5.888h-0.792
		V101.635z"/>
	<path fill="#FFFFFF" d="M113.998,101.419c1.188,0,1.963,0.522,2.539,1.062l-0.468,0.558c-0.558-0.522-1.207-0.918-2.053-0.918
		c-1.765,0-3.133,1.566-3.133,3.853c0,2.269,1.242,3.817,3.133,3.817c0.918,0,1.71-0.45,2.305-0.99l0.414,0.54
		c-0.738,0.667-1.656,1.152-2.755,1.152c-2.232,0-3.925-1.656-3.925-4.519C110.055,103.075,111.892,101.419,113.998,101.419z"/>
	<path fill="#FFFFFF" d="M118.856,97.332h0.792v3.745v1.909c0.9-0.9,1.8-1.566,2.989-1.566c1.783,0,2.611,1.08,2.611,3.312v5.546
		h-0.792v-5.438c0-1.837-0.576-2.701-1.981-2.701c-1.026,0-1.764,0.541-2.827,1.621v6.518h-0.792V97.332z"/>
	<path fill="#FFFFFF" d="M131.404,101.419c2.053,0,3.313,1.458,3.313,3.997c0,0.216,0,0.432-0.036,0.648h-6.23
		c0.036,2.179,1.314,3.745,3.259,3.745c0.937,0,1.675-0.306,2.323-0.774l0.324,0.612c-0.684,0.415-1.458,0.846-2.719,0.846
		c-2.215,0-3.998-1.692-3.998-4.519S129.478,101.419,131.404,101.419z M133.961,105.452c0-2.215-0.99-3.349-2.539-3.349
		c-1.477,0-2.791,1.278-2.971,3.349H133.961z"/>
	<path fill="#FFFFFF" d="M136.442,108.711c0.738,0.612,1.512,1.098,2.755,1.098c1.35,0,2.052-0.792,2.052-1.71
		c0-1.08-1.116-1.548-2.106-1.909c-1.314-0.468-2.755-0.99-2.755-2.466c0-1.261,0.99-2.305,2.791-2.305
		c0.918,0,1.836,0.378,2.467,0.9l-0.432,0.558c-0.576-0.432-1.188-0.774-2.071-0.774c-1.333,0-1.945,0.774-1.945,1.566
		c0,0.954,1.009,1.368,2.035,1.747c1.351,0.504,2.827,0.954,2.827,2.646c0,1.296-1.044,2.431-2.917,2.431
		c-1.278,0-2.395-0.54-3.169-1.188L136.442,108.711z"/>
	<path fill="#FFFFFF" d="M144.542,102.319h-1.35v-0.612l1.368-0.072l0.108-2.503h0.684v2.503h2.503v0.684h-2.503v5.636
		c0,1.098,0.271,1.836,1.458,1.836c0.324,0,0.774-0.126,1.081-0.27l0.216,0.648c-0.504,0.18-1.044,0.324-1.404,0.324
		c-1.674,0-2.161-1.062-2.161-2.61V102.319z"/>
	<path fill="#FFFFFF" d="M149.961,101.635h0.684l0.072,1.603h0.054c0.576-1.062,1.422-1.818,2.449-1.818
		c0.324,0,0.576,0.036,0.864,0.18l-0.18,0.72c-0.288-0.108-0.45-0.144-0.792-0.144c-0.774,0-1.693,0.594-2.359,2.215v5.888h-0.792
		V101.635z"/>
	<path fill="#FFFFFF" d="M160.348,104.858c0.036-1.314-0.342-2.737-2.035-2.737c-1.17,0-2.179,0.576-2.755,1.008l-0.36-0.594
		c0.612-0.432,1.8-1.116,3.205-1.116c2.052,0,2.737,1.476,2.737,3.331v5.528h-0.667l-0.09-1.116h-0.036
		c-0.882,0.702-1.927,1.332-3.061,1.332c-1.368,0-2.521-0.738-2.521-2.376C154.766,106.208,156.513,105.29,160.348,104.858z
		 M157.413,109.809c0.99,0,1.872-0.486,2.935-1.404v-2.935c-3.547,0.414-4.753,1.243-4.753,2.611
		C155.594,109.323,156.422,109.809,157.413,109.809z"/>
	<path fill="#FFFFFF" d="M164.432,102.319h-1.35v-0.612l1.368-0.072l0.108-2.503h0.684v2.503h2.503v0.684h-2.503v5.636
		c0,1.098,0.271,1.836,1.458,1.836c0.324,0,0.774-0.126,1.081-0.27l0.216,0.648c-0.504,0.18-1.044,0.324-1.404,0.324
		c-1.674,0-2.161-1.062-2.161-2.61V102.319z"/>
	<path fill="#FFFFFF" d="M169.544,98.844c0-0.45,0.324-0.72,0.72-0.72c0.396,0,0.72,0.27,0.72,0.72c0,0.414-0.324,0.702-0.72,0.702
		C169.868,99.546,169.544,99.258,169.544,98.844z M169.851,101.635h0.792v8.643h-0.792V101.635z"/>
	<path fill="#FFFFFF" d="M177.123,101.419c2.088,0,3.889,1.656,3.889,4.555c0,2.863-1.801,4.519-3.889,4.519
		c-2.071,0-3.871-1.656-3.871-4.519C173.252,103.075,175.052,101.419,177.123,101.419z M177.123,109.791
		c1.746,0,3.061-1.548,3.061-3.817c0-2.287-1.314-3.853-3.061-3.853c-1.747,0-3.043,1.566-3.043,3.853
		C174.08,108.243,175.376,109.791,177.123,109.791z"/>
	<path fill="#FFFFFF" d="M183.602,101.635h0.685l0.072,1.333h0.054c0.882-0.882,1.782-1.548,2.971-1.548
		c1.783,0,2.611,1.08,2.611,3.312v5.546h-0.792v-5.438c0-1.837-0.576-2.701-1.981-2.701c-1.026,0-1.764,0.541-2.827,1.621v6.518
		h-0.792V101.635z"/>
	<path fill="#FFFFFF" d="M97.979,137.696c1.387,0,2.449,0.684,3.079,1.422l-0.486,0.54c-0.648-0.72-1.512-1.206-2.593-1.206
		c-2.593,0-4.213,2.07-4.213,5.365s1.603,5.42,4.141,5.42c1.224,0,2.143-0.486,3.007-1.458l0.486,0.522
		c-0.9,1.044-1.981,1.692-3.529,1.692c-2.917,0-4.969-2.395-4.969-6.176C92.901,140.055,94.954,137.696,97.979,137.696z"/>
	<path fill="#FFFFFF" d="M103.665,136.832h0.792v11.901c0,0.378,0.162,0.558,0.378,0.558c0.072,0,0.144,0,0.324-0.036l0.144,0.648
		c-0.162,0.054-0.324,0.09-0.576,0.09c-0.702,0-1.062-0.432-1.062-1.368V136.832z"/>
	<path fill="#FFFFFF" d="M107.805,141.135h0.792v5.438c0,1.837,0.576,2.701,1.962,2.701c1.026,0,1.783-0.541,2.791-1.765v-6.374
		h0.792v8.643h-0.666l-0.09-1.44h-0.036c-0.846,0.99-1.747,1.656-2.935,1.656c-1.782,0-2.611-1.08-2.611-3.312V141.135z"/>
	<path fill="#FFFFFF" d="M116.841,148.211c0.738,0.612,1.512,1.098,2.755,1.098c1.35,0,2.052-0.792,2.052-1.71
		c0-1.08-1.116-1.548-2.106-1.909c-1.314-0.468-2.755-0.99-2.755-2.466c0-1.261,0.99-2.305,2.791-2.305
		c0.918,0,1.836,0.378,2.467,0.9l-0.432,0.558c-0.576-0.432-1.188-0.774-2.071-0.774c-1.333,0-1.945,0.774-1.945,1.566
		c0,0.954,1.009,1.368,2.035,1.747c1.351,0.504,2.827,0.954,2.827,2.646c0,1.296-1.044,2.431-2.917,2.431
		c-1.278,0-2.395-0.54-3.169-1.188L116.841,148.211z"/>
	<path fill="#FFFFFF" d="M124.941,141.819h-1.35v-0.612l1.368-0.072l0.108-2.503h0.684v2.503h2.503v0.684h-2.503v5.636
		c0,1.098,0.271,1.836,1.458,1.836c0.324,0,0.774-0.126,1.081-0.27l0.216,0.648c-0.504,0.18-1.044,0.324-1.404,0.324
		c-1.674,0-2.161-1.062-2.161-2.61V141.819z"/>
	<path fill="#FFFFFF" d="M133.222,140.919c2.053,0,3.313,1.458,3.313,3.997c0,0.216,0,0.432-0.036,0.648h-6.23
		c0.036,2.179,1.314,3.745,3.259,3.745c0.937,0,1.675-0.306,2.323-0.774l0.324,0.612c-0.684,0.415-1.458,0.846-2.719,0.846
		c-2.215,0-3.997-1.692-3.997-4.519S131.295,140.919,133.222,140.919z M135.779,144.952c0-2.215-0.991-3.349-2.539-3.349
		c-1.476,0-2.791,1.278-2.971,3.349H135.779z"/>
	<path fill="#FFFFFF" d="M138.873,141.135h0.684l0.072,1.603h0.054c0.576-1.062,1.422-1.818,2.449-1.818
		c0.324,0,0.576,0.036,0.864,0.18l-0.18,0.72c-0.288-0.108-0.45-0.144-0.792-0.144c-0.774,0-1.693,0.594-2.359,2.215v5.888h-0.792
		V141.135z"/>
	<path fill="#FFFFFF" d="M154.75,149.777l-3.205-5.456h-2.521v5.456h-0.828v-11.866h3.385c2.358,0,3.907,0.864,3.907,3.133
		c0,1.891-1.188,2.971-3.043,3.223l3.259,5.51H154.75z M151.365,143.638c2.107,0,3.259-0.847,3.259-2.593
		c0-1.783-1.152-2.431-3.259-2.431h-2.341v5.023H151.365z"/>
	<path fill="#FFFFFF" d="M160.977,140.919c2.053,0,3.313,1.458,3.313,3.997c0,0.216,0,0.432-0.036,0.648h-6.23
		c0.036,2.179,1.314,3.745,3.259,3.745c0.937,0,1.675-0.306,2.323-0.774l0.324,0.612c-0.684,0.415-1.458,0.846-2.719,0.846
		c-2.215,0-3.998-1.692-3.998-4.519S159.051,140.919,160.977,140.919z M163.534,144.952c0-2.215-0.99-3.349-2.539-3.349
		c-1.477,0-2.791,1.278-2.971,3.349H163.534z"/>
	<path fill="#FFFFFF" d="M166.016,148.211c0.738,0.612,1.512,1.098,2.755,1.098c1.35,0,2.052-0.792,2.052-1.71
		c0-1.08-1.116-1.548-2.106-1.909c-1.314-0.468-2.755-0.99-2.755-2.466c0-1.261,0.99-2.305,2.791-2.305
		c0.918,0,1.836,0.378,2.467,0.9l-0.432,0.558c-0.576-0.432-1.188-0.774-2.071-0.774c-1.333,0-1.944,0.774-1.944,1.566
		c0,0.954,1.008,1.368,2.034,1.747c1.351,0.504,2.827,0.954,2.827,2.646c0,1.296-1.044,2.431-2.917,2.431
		c-1.278,0-2.395-0.54-3.169-1.188L166.016,148.211z"/>
	<path fill="#FFFFFF" d="M177.069,140.919c2.088,0,3.889,1.656,3.889,4.555c0,2.863-1.801,4.519-3.889,4.519
		c-2.071,0-3.871-1.656-3.871-4.519C173.198,142.575,174.999,140.919,177.069,140.919z M177.069,149.291
		c1.746,0,3.061-1.548,3.061-3.817c0-2.287-1.314-3.853-3.061-3.853c-1.747,0-3.043,1.566-3.043,3.853
		C174.026,147.743,175.323,149.291,177.069,149.291z"/>
	<path fill="#FFFFFF" d="M183.422,141.135h0.792v5.438c0,1.837,0.576,2.701,1.962,2.701c1.026,0,1.783-0.541,2.791-1.765v-6.374
		h0.792v8.643h-0.666l-0.09-1.44h-0.036c-0.846,0.99-1.747,1.656-2.935,1.656c-1.782,0-2.611-1.08-2.611-3.312V141.135z"/>
	<path fill="#FFFFFF" d="M193.069,141.135h0.685l0.072,1.603h0.054c0.576-1.062,1.422-1.818,2.449-1.818
		c0.324,0,0.576,0.036,0.864,0.18l-0.18,0.72c-0.288-0.108-0.45-0.144-0.792-0.144c-0.774,0-1.693,0.594-2.359,2.215v5.888h-0.792
		V141.135z"/>
	<path fill="#FFFFFF" d="M201.818,140.919c1.188,0,1.963,0.522,2.539,1.062l-0.468,0.558c-0.558-0.522-1.207-0.918-2.053-0.918
		c-1.765,0-3.133,1.566-3.133,3.853c0,2.269,1.242,3.817,3.133,3.817c0.918,0,1.71-0.45,2.305-0.99l0.414,0.54
		c-0.738,0.667-1.656,1.152-2.755,1.152c-2.232,0-3.925-1.656-3.925-4.519C197.875,142.575,199.712,140.919,201.818,140.919z"/>
	<path fill="#FFFFFF" d="M209.414,140.919c2.053,0,3.313,1.458,3.313,3.997c0,0.216,0,0.432-0.036,0.648h-6.23
		c0.036,2.179,1.314,3.745,3.259,3.745c0.937,0,1.675-0.306,2.323-0.774l0.324,0.612c-0.684,0.415-1.458,0.846-2.719,0.846
		c-2.215,0-3.997-1.692-3.997-4.519S207.488,140.919,209.414,140.919z M211.971,144.952c0-2.215-0.991-3.349-2.539-3.349
		c-1.476,0-2.791,1.278-2.971,3.349H211.971z"/>
	<path fill="#FFFFFF" d="M214.453,148.211c0.738,0.612,1.512,1.098,2.755,1.098c1.35,0,2.052-0.792,2.052-1.71
		c0-1.08-1.116-1.548-2.106-1.909c-1.314-0.468-2.755-0.99-2.755-2.466c0-1.261,0.99-2.305,2.791-2.305
		c0.918,0,1.836,0.378,2.467,0.9l-0.432,0.558c-0.576-0.432-1.188-0.774-2.071-0.774c-1.333,0-1.945,0.774-1.945,1.566
		c0,0.954,1.009,1.368,2.035,1.747c1.351,0.504,2.827,0.954,2.827,2.646c0,1.296-1.044,2.431-2.917,2.431
		c-1.278,0-2.395-0.54-3.169-1.188L214.453,148.211z"/>
	<path fill="#FFFFFF" d="M97.979,177.196c1.387,0,2.449,0.684,3.079,1.422l-0.486,0.54c-0.648-0.72-1.512-1.206-2.593-1.206
		c-2.593,0-4.213,2.07-4.213,5.365s1.603,5.42,4.141,5.42c1.224,0,2.143-0.486,3.007-1.458l0.486,0.522
		c-0.9,1.044-1.981,1.692-3.529,1.692c-2.917,0-4.969-2.395-4.969-6.176C92.901,179.555,94.954,177.196,97.979,177.196z"/>
	<path fill="#FFFFFF" d="M103.665,176.332h0.792v11.901c0,0.378,0.162,0.558,0.378,0.558c0.072,0,0.144,0,0.324-0.036l0.144,0.648
		c-0.162,0.054-0.324,0.09-0.576,0.09c-0.702,0-1.062-0.432-1.062-1.368V176.332z"/>
	<path fill="#FFFFFF" d="M107.805,180.635h0.792v5.438c0,1.837,0.576,2.701,1.962,2.701c1.026,0,1.783-0.541,2.791-1.765v-6.374
		h0.792v8.643h-0.666l-0.09-1.44h-0.036c-0.846,0.99-1.747,1.656-2.935,1.656c-1.782,0-2.611-1.08-2.611-3.312V180.635z"/>
	<path fill="#FFFFFF" d="M116.841,187.711c0.738,0.612,1.512,1.098,2.755,1.098c1.35,0,2.052-0.792,2.052-1.71
		c0-1.08-1.116-1.548-2.106-1.909c-1.314-0.468-2.755-0.99-2.755-2.466c0-1.261,0.99-2.305,2.791-2.305
		c0.918,0,1.836,0.378,2.467,0.9l-0.432,0.558c-0.576-0.432-1.188-0.774-2.071-0.774c-1.333,0-1.945,0.774-1.945,1.566
		c0,0.954,1.009,1.368,2.035,1.747c1.351,0.504,2.827,0.954,2.827,2.646c0,1.296-1.044,2.431-2.917,2.431
		c-1.278,0-2.395-0.54-3.169-1.188L116.841,187.711z"/>
	<path fill="#FFFFFF" d="M124.941,181.319h-1.35v-0.612l1.368-0.072l0.108-2.503h0.684v2.503h2.503v0.684h-2.503v5.636
		c0,1.098,0.271,1.836,1.458,1.836c0.324,0,0.774-0.126,1.081-0.27l0.216,0.648c-0.504,0.18-1.044,0.324-1.404,0.324
		c-1.674,0-2.161-1.062-2.161-2.61V181.319z"/>
	<path fill="#FFFFFF" d="M133.222,180.419c2.053,0,3.313,1.458,3.313,3.997c0,0.216,0,0.432-0.036,0.648h-6.23
		c0.036,2.179,1.314,3.745,3.259,3.745c0.937,0,1.675-0.306,2.323-0.774l0.324,0.612c-0.684,0.415-1.458,0.846-2.719,0.846
		c-2.215,0-3.997-1.692-3.997-4.519S131.295,180.419,133.222,180.419z M135.779,184.452c0-2.215-0.991-3.349-2.539-3.349
		c-1.476,0-2.791,1.278-2.971,3.349H135.779z"/>
	<path fill="#FFFFFF" d="M138.873,180.635h0.684l0.072,1.603h0.054c0.576-1.062,1.422-1.818,2.449-1.818
		c0.324,0,0.576,0.036,0.864,0.18l-0.18,0.72c-0.288-0.108-0.45-0.144-0.792-0.144c-0.774,0-1.693,0.594-2.359,2.215v5.888h-0.792
		V180.635z"/>
	<path fill="#FFFFFF" d="M152.5,177.196c1.387,0,2.449,0.684,3.079,1.422l-0.486,0.54c-0.648-0.72-1.512-1.206-2.593-1.206
		c-2.593,0-4.213,2.07-4.213,5.365s1.602,5.42,4.141,5.42c1.224,0,2.143-0.486,3.007-1.458l0.486,0.522
		c-0.9,1.044-1.981,1.692-3.529,1.692c-2.917,0-4.969-2.395-4.969-6.176C147.422,179.555,149.475,177.196,152.5,177.196z"/>
	<path fill="#FFFFFF" d="M161.337,180.419c2.088,0,3.889,1.656,3.889,4.555c0,2.863-1.801,4.519-3.889,4.519
		c-2.071,0-3.872-1.656-3.872-4.519C157.466,182.075,159.267,180.419,161.337,180.419z M161.337,188.791
		c1.747,0,3.061-1.548,3.061-3.817c0-2.287-1.314-3.853-3.061-3.853s-3.043,1.566-3.043,3.853
		C158.294,187.243,159.591,188.791,161.337,188.791z"/>
	<path fill="#FFFFFF" d="M167.816,180.635h0.684l0.072,1.333h0.054c0.882-0.882,1.783-1.548,2.971-1.548
		c1.783,0,2.611,1.08,2.611,3.312v5.546h-0.792v-5.438c0-1.837-0.576-2.701-1.981-2.701c-1.026,0-1.764,0.541-2.827,1.621v6.518
		h-0.792V180.635z"/>
	<path fill="#FFFFFF" d="M176.78,187.711c0.738,0.612,1.512,1.098,2.755,1.098c1.35,0,2.052-0.792,2.052-1.71
		c0-1.08-1.116-1.548-2.106-1.909c-1.314-0.468-2.755-0.99-2.755-2.466c0-1.261,0.99-2.305,2.791-2.305
		c0.918,0,1.836,0.378,2.467,0.9l-0.432,0.558c-0.576-0.432-1.188-0.774-2.071-0.774c-1.333,0-1.944,0.774-1.944,1.566
		c0,0.954,1.008,1.368,2.034,1.747c1.351,0.504,2.827,0.954,2.827,2.646c0,1.296-1.044,2.431-2.917,2.431
		c-1.278,0-2.395-0.54-3.169-1.188L176.78,187.711z"/>
	<path fill="#FFFFFF" d="M187.725,180.419c2.053,0,3.313,1.458,3.313,3.997c0,0.216,0,0.432-0.036,0.648h-6.23
		c0.036,2.179,1.314,3.745,3.259,3.745c0.937,0,1.675-0.306,2.323-0.774l0.324,0.612c-0.684,0.415-1.458,0.846-2.719,0.846
		c-2.215,0-3.997-1.692-3.997-4.519S185.798,180.419,187.725,180.419z M190.282,184.452c0-2.215-0.991-3.349-2.539-3.349
		c-1.476,0-2.791,1.278-2.971,3.349H190.282z"/>
	<path fill="#FFFFFF" d="M193.376,180.635h0.684l0.072,1.333h0.054c0.882-0.882,1.783-1.548,2.971-1.548
		c1.783,0,2.611,1.08,2.611,3.312v5.546h-0.792v-5.438c0-1.837-0.576-2.701-1.981-2.701c-1.026,0-1.764,0.541-2.827,1.621v6.518
		h-0.792V180.635z"/>
	<path fill="#FFFFFF" d="M202.34,187.711c0.738,0.612,1.512,1.098,2.755,1.098c1.35,0,2.052-0.792,2.052-1.71
		c0-1.08-1.116-1.548-2.106-1.909c-1.314-0.468-2.755-0.99-2.755-2.466c0-1.261,0.99-2.305,2.791-2.305
		c0.918,0,1.836,0.378,2.467,0.9l-0.432,0.558c-0.576-0.432-1.188-0.774-2.071-0.774c-1.333,0-1.945,0.774-1.945,1.566
		c0,0.954,1.009,1.368,2.035,1.747c1.351,0.504,2.827,0.954,2.827,2.646c0,1.296-1.044,2.431-2.917,2.431
		c-1.278,0-2.395-0.54-3.169-1.188L202.34,187.711z"/>
	<path fill="#FFFFFF" d="M210.115,180.635h0.792v5.438c0,1.837,0.576,2.701,1.962,2.701c1.026,0,1.783-0.541,2.791-1.765v-6.374
		h0.792v8.643h-0.666l-0.09-1.44h-0.036c-0.846,0.99-1.747,1.656-2.935,1.656c-1.782,0-2.611-1.08-2.611-3.312V180.635z"/>
	<path fill="#FFFFFF" d="M219.151,187.711c0.738,0.612,1.512,1.098,2.755,1.098c1.35,0,2.052-0.792,2.052-1.71
		c0-1.08-1.116-1.548-2.106-1.909c-1.314-0.468-2.755-0.99-2.755-2.466c0-1.261,0.99-2.305,2.791-2.305
		c0.918,0,1.836,0.378,2.467,0.9l-0.432,0.558c-0.576-0.432-1.188-0.774-2.071-0.774c-1.333,0-1.945,0.774-1.945,1.566
		c0,0.954,1.009,1.368,2.035,1.747c1.351,0.504,2.827,0.954,2.827,2.646c0,1.296-1.044,2.431-2.917,2.431
		c-1.278,0-2.395-0.54-3.169-1.188L219.151,187.711z"/>
	<path fill="#FFFFFF" d="M92.901,222.8c0-3.745,2.034-6.104,4.897-6.104c2.845,0,4.879,2.359,4.879,6.104
		c0,3.763-2.035,6.193-4.879,6.193C94.936,228.993,92.901,226.562,92.901,222.8z M101.814,222.8c0-3.277-1.621-5.348-4.015-5.348
		c-2.413,0-4.033,2.07-4.033,5.348c0,3.295,1.62,5.438,4.033,5.438C100.193,228.237,101.814,226.095,101.814,222.8z"/>
	<path fill="#FFFFFF" d="M104.889,226.635c0.864,0.972,2.106,1.603,3.493,1.603c1.8,0,2.953-0.973,2.953-2.377
		c0-1.477-0.972-1.962-2.143-2.484l-1.8-0.811c-1.026-0.45-2.395-1.188-2.395-2.953c0-1.71,1.477-2.917,3.439-2.917
		c1.44,0,2.593,0.648,3.313,1.422l-0.486,0.558c-0.684-0.738-1.639-1.224-2.827-1.224c-1.566,0-2.611,0.828-2.611,2.125
		c0,1.368,1.188,1.891,2.053,2.287l1.801,0.792c1.314,0.594,2.484,1.333,2.484,3.151c0,1.818-1.494,3.187-3.799,3.187
		c-1.729,0-3.061-0.738-3.997-1.782L104.889,226.635z"/>
	<path fill="#FFFFFF" d="M118.499,215.994h0.684l-5.474,15.665h-0.702L118.499,215.994z"/>
	<path fill="#FFFFFF" d="M120.963,216.912h6.482v0.72h-5.654v4.483h4.754v0.72h-4.754v5.222h5.834v0.72h-6.662V216.912z"/>
	<path fill="#FFFFFF" d="M131.583,224.258l-2.701-4.123h0.882l1.405,2.197c0.288,0.468,0.594,0.954,0.918,1.422h0.072
		c0.306-0.468,0.576-0.954,0.882-1.422l1.35-2.197h0.829l-2.683,4.195l2.935,4.447h-0.882l-1.53-2.359
		c-0.324-0.54-0.667-1.08-1.026-1.584h-0.072c-0.342,0.504-0.648,1.044-0.99,1.584l-1.477,2.359h-0.846L131.583,224.258z"/>
	<path fill="#FFFFFF" d="M140.206,219.919c2.053,0,3.313,1.458,3.313,3.997c0,0.216,0,0.432-0.036,0.648h-6.23
		c0.036,2.179,1.314,3.745,3.259,3.745c0.937,0,1.675-0.306,2.323-0.774l0.324,0.612c-0.684,0.415-1.458,0.846-2.719,0.846
		c-2.215,0-3.998-1.692-3.998-4.519S138.279,219.919,140.206,219.919z M142.763,223.952c0-2.215-0.99-3.349-2.539-3.349
		c-1.477,0-2.791,1.278-2.971,3.349H142.763z"/>
	<path fill="#FFFFFF" d="M149.08,219.919c1.188,0,1.962,0.522,2.539,1.062l-0.468,0.558c-0.558-0.522-1.207-0.918-2.053-0.918
		c-1.765,0-3.133,1.566-3.133,3.853c0,2.269,1.242,3.817,3.133,3.817c0.918,0,1.71-0.45,2.305-0.99l0.414,0.54
		c-0.738,0.667-1.656,1.152-2.755,1.152c-2.232,0-3.925-1.656-3.925-4.519C145.137,221.575,146.973,219.919,149.08,219.919z"/>
	<path fill="#FFFFFF" d="M153.812,220.135h0.792v5.438c0,1.837,0.576,2.701,1.962,2.701c1.026,0,1.783-0.541,2.791-1.765v-6.374
		h0.792v8.643h-0.666l-0.09-1.44h-0.036c-0.846,0.99-1.747,1.656-2.935,1.656c-1.782,0-2.611-1.08-2.611-3.312V220.135z"/>
	<path fill="#FFFFFF" d="M163.658,220.819h-1.351v-0.612l1.369-0.072l0.108-2.503h0.685v2.503h2.502v0.684h-2.502v5.636
		c0,1.098,0.27,1.836,1.458,1.836c0.324,0,0.774-0.126,1.081-0.27l0.216,0.648c-0.504,0.18-1.044,0.324-1.404,0.324
		c-1.674,0-2.161-1.062-2.161-2.61V220.819z"/>
	<path fill="#FFFFFF" d="M168.771,217.344c0-0.45,0.324-0.72,0.72-0.72c0.396,0,0.72,0.27,0.72,0.72c0,0.414-0.324,0.702-0.72,0.702
		C169.094,218.046,168.771,217.758,168.771,217.344z M169.076,220.135h0.792v8.643h-0.792V220.135z"/>
	<path fill="#FFFFFF" d="M176.349,219.919c2.088,0,3.889,1.656,3.889,4.555c0,2.863-1.801,4.519-3.889,4.519
		c-2.071,0-3.872-1.656-3.872-4.519C172.478,221.575,174.278,219.919,176.349,219.919z M176.349,228.291
		c1.747,0,3.061-1.548,3.061-3.817c0-2.287-1.314-3.853-3.061-3.853s-3.043,1.566-3.043,3.853
		C173.306,226.743,174.603,228.291,176.349,228.291z"/>
	<path fill="#FFFFFF" d="M182.828,220.135h0.684l0.072,1.333h0.054c0.882-0.882,1.783-1.548,2.971-1.548
		c1.783,0,2.611,1.08,2.611,3.312v5.546h-0.792v-5.438c0-1.837-0.576-2.701-1.981-2.701c-1.026,0-1.764,0.541-2.827,1.621v6.518
		h-0.792V220.135z"/>
	<path fill="#FFFFFF" d="M93.675,256.412h0.829v5.203h6.338v-5.203h0.828v11.865h-0.828v-5.941h-6.338v5.941h-0.829V256.412z"/>
	<path fill="#FFFFFF" d="M110.111,262.857c0.036-1.314-0.342-2.736-2.035-2.736c-1.17,0-2.179,0.576-2.755,1.008l-0.36-0.594
		c0.612-0.433,1.8-1.116,3.205-1.116c2.052,0,2.737,1.477,2.737,3.331v5.527h-0.667l-0.09-1.116h-0.036
		c-0.882,0.702-1.926,1.332-3.061,1.332c-1.368,0-2.521-0.738-2.521-2.377C104.529,264.208,106.276,263.29,110.111,262.857z
		 M107.176,267.81c0.991,0,1.873-0.486,2.935-1.404v-2.936c-3.547,0.414-4.753,1.242-4.753,2.611
		C105.357,267.323,106.186,267.81,107.176,267.81z"/>
	<path fill="#FFFFFF" d="M113.997,259.635h0.685l0.072,1.603h0.054c0.576-1.062,1.422-1.818,2.449-1.818
		c0.324,0,0.576,0.036,0.864,0.18l-0.18,0.721c-0.288-0.108-0.45-0.145-0.792-0.145c-0.774,0-1.693,0.595-2.359,2.215v5.888h-0.792
		V259.635z"/>
	<path fill="#FFFFFF" d="M122.638,259.419c1.044,0,1.747,0.396,2.611,1.062l-0.036-1.585v-3.565h0.792v12.946h-0.685l-0.072-1.116
		h-0.054c-0.702,0.702-1.656,1.332-2.809,1.332c-2.179,0-3.583-1.603-3.583-4.52C118.803,261.184,120.585,259.419,122.638,259.419z
		 M122.494,267.791c0.954,0,1.8-0.504,2.719-1.422v-5.132c-0.918-0.811-1.674-1.116-2.521-1.116c-1.729,0-3.042,1.675-3.042,3.853
		C119.649,266.261,120.657,267.791,122.494,267.791z"/>
	<path fill="#FFFFFF" d="M128.09,259.635h0.864l1.548,5.6c0.216,0.792,0.414,1.53,0.594,2.305h0.072
		c0.198-0.774,0.414-1.513,0.63-2.305l1.566-5.6h0.955l1.566,5.6c0.216,0.792,0.432,1.53,0.648,2.305h0.072
		c0.198-0.774,0.414-1.513,0.612-2.305l1.53-5.6h0.81l-2.484,8.643h-1.044l-1.513-5.365c-0.252-0.829-0.414-1.621-0.666-2.467
		h-0.072c-0.198,0.846-0.415,1.674-0.685,2.503l-1.494,5.329h-0.955L128.09,259.635z"/>
	<path fill="#FFFFFF" d="M146.56,262.857c0.036-1.314-0.342-2.736-2.035-2.736c-1.17,0-2.179,0.576-2.755,1.008l-0.36-0.594
		c0.612-0.433,1.8-1.116,3.205-1.116c2.052,0,2.737,1.477,2.737,3.331v5.527h-0.667l-0.09-1.116h-0.036
		c-0.882,0.702-1.926,1.332-3.061,1.332c-1.368,0-2.521-0.738-2.521-2.377C140.979,264.208,142.725,263.29,146.56,262.857z
		 M143.625,267.81c0.991,0,1.873-0.486,2.935-1.404v-2.936c-3.547,0.414-4.753,1.242-4.753,2.611
		C141.807,267.323,142.635,267.81,143.625,267.81z"/>
	<path fill="#FFFFFF" d="M150.446,259.635h0.685l0.072,1.603h0.054c0.576-1.062,1.422-1.818,2.449-1.818
		c0.324,0,0.576,0.036,0.864,0.18l-0.18,0.721c-0.288-0.108-0.45-0.145-0.792-0.145c-0.774,0-1.693,0.595-2.359,2.215v5.888h-0.792
		V259.635z"/>
	<path fill="#FFFFFF" d="M159.015,259.419c2.053,0,3.313,1.458,3.313,3.997c0,0.216,0,0.432-0.036,0.648h-6.23
		c0.036,2.179,1.314,3.745,3.259,3.745c0.937,0,1.675-0.307,2.323-0.774l0.324,0.612c-0.684,0.414-1.458,0.846-2.719,0.846
		c-2.215,0-3.998-1.692-3.998-4.52C155.252,261.147,157.089,259.419,159.015,259.419z M161.572,263.452
		c0-2.215-0.99-3.35-2.539-3.35c-1.477,0-2.791,1.278-2.971,3.35H161.572z"/>
</g>
<g>
	<path fill="#FFFFFF" d="M310.901,70.777l-1.895-3.322h-1.415v3.322h-1.008V62.91h2.471c1.596,0,2.747,0.576,2.747,2.207
		c0,1.224-0.696,1.955-1.764,2.231l2.003,3.43H310.901z M307.592,66.64h1.319c1.223,0,1.895-0.504,1.895-1.523
		c0-1.031-0.672-1.403-1.895-1.403h-1.319V66.64z"/>
	<path fill="#FFFFFF" d="M315.583,64.805c1.427,0,2.698,1.115,2.698,3.07c0,1.931-1.271,3.046-2.698,3.046
		c-1.428,0-2.698-1.116-2.698-3.046C312.885,65.92,314.155,64.805,315.583,64.805z M315.583,70.105c1.008,0,1.679-0.899,1.679-2.23
		c0-1.343-0.671-2.255-1.679-2.255c-0.995,0-1.679,0.912-1.679,2.255C313.904,69.206,314.588,70.105,315.583,70.105z"/>
	<path fill="#FFFFFF" d="M322.194,64.805c0.768,0,1.308,0.324,1.703,0.695l-0.491,0.636c-0.348-0.3-0.708-0.516-1.176-0.516
		c-1.055,0-1.822,0.912-1.822,2.255c0,1.331,0.731,2.23,1.799,2.23c0.552,0,1.02-0.275,1.367-0.587l0.443,0.647
		c-0.527,0.468-1.199,0.756-1.895,0.756c-1.547,0-2.734-1.116-2.734-3.046C319.389,65.92,320.695,64.805,322.194,64.805z"/>
	<path fill="#FFFFFF" d="M325.292,62.238h0.972v5.781h0.035l2.483-3.07h1.091l-1.955,2.338l2.219,3.49h-1.079l-1.703-2.807
		l-1.091,1.271v1.535h-0.972V62.238z"/>
	<path fill="#FFFFFF" d="M333.198,64.805c1.487,0,2.327,1.067,2.327,2.734c0,0.204-0.012,0.396-0.036,0.54h-3.934
		c0.072,1.259,0.827,2.051,1.943,2.051c0.551,0,1.019-0.18,1.451-0.456l0.348,0.648c-0.504,0.324-1.128,0.6-1.919,0.6
		c-1.56,0-2.795-1.14-2.795-3.046C330.584,65.968,331.867,64.805,333.198,64.805z M334.662,67.431c0-1.188-0.528-1.847-1.439-1.847
		c-0.815,0-1.56,0.672-1.679,1.847H334.662z"/>
	<path fill="#FFFFFF" d="M336.968,65.752h-0.863v-0.744l0.911-0.06l0.12-1.631h0.828v1.631h1.57v0.803h-1.57v3.238
		c0,0.72,0.228,1.127,0.899,1.127c0.203,0,0.468-0.084,0.659-0.156l0.192,0.744c-0.324,0.108-0.72,0.216-1.08,0.216
		c-1.247,0-1.667-0.792-1.667-1.943V65.752z"/>
	<path fill="#FFFFFF" d="M340.604,72.241c0.672-0.3,1.08-0.816,1.08-1.463c-0.036,0.012-0.084,0.012-0.12,0.012
		c-0.384,0-0.708-0.24-0.708-0.684c0-0.432,0.336-0.695,0.732-0.695c0.516,0,0.827,0.444,0.827,1.163c0,1.032-0.6,1.835-1.571,2.243
		L340.604,72.241z"/>
	<path fill="#FFFFFF" d="M346.496,62.91h1.967c2.423,0,3.718,1.403,3.718,3.898c0,2.506-1.295,3.97-3.67,3.97h-2.015V62.91z
		 M348.391,69.962c1.847,0,2.759-1.164,2.759-3.154c0-1.979-0.912-3.083-2.759-3.083h-0.888v6.237H348.391z"/>
	<path fill="#FFFFFF" d="M356.046,64.805c1.428,0,2.699,1.115,2.699,3.07c0,1.931-1.271,3.046-2.699,3.046
		c-1.427,0-2.698-1.116-2.698-3.046C353.348,65.92,354.619,64.805,356.046,64.805z M356.046,70.105c1.008,0,1.68-0.899,1.68-2.23
		c0-1.343-0.672-2.255-1.68-2.255c-0.995,0-1.679,0.912-1.679,2.255C354.367,69.206,355.051,70.105,356.046,70.105z"/>
	<path fill="#FFFFFF" d="M362.658,64.805c0.768,0,1.308,0.324,1.703,0.695l-0.492,0.636c-0.348-0.3-0.707-0.516-1.175-0.516
		c-1.056,0-1.823,0.912-1.823,2.255c0,1.331,0.731,2.23,1.799,2.23c0.552,0,1.02-0.275,1.367-0.587l0.444,0.647
		c-0.528,0.468-1.199,0.756-1.896,0.756c-1.547,0-2.734-1.116-2.734-3.046C359.852,65.92,361.159,64.805,362.658,64.805z"/>
	<path fill="#FFFFFF" d="M365.756,62.238h0.972v5.781h0.035l2.483-3.07h1.091l-1.955,2.338l2.219,3.49h-1.079l-1.703-2.807
		l-1.091,1.271v1.535h-0.972V62.238z"/>
	<path fill="#FFFFFF" d="M373.662,64.805c1.487,0,2.327,1.067,2.327,2.734c0,0.204-0.012,0.396-0.036,0.54h-3.934
		c0.072,1.259,0.827,2.051,1.943,2.051c0.551,0,1.019-0.18,1.451-0.456l0.348,0.648c-0.504,0.324-1.128,0.6-1.919,0.6
		c-1.56,0-2.795-1.14-2.795-3.046C371.048,65.968,372.331,64.805,373.662,64.805z M375.126,67.431c0-1.188-0.528-1.847-1.439-1.847
		c-0.815,0-1.56,0.672-1.679,1.847H375.126z"/>
	<path fill="#FFFFFF" d="M377.432,64.949h0.815l0.084,1.055h0.036c0.396-0.731,0.995-1.199,1.655-1.199
		c0.251,0,0.432,0.036,0.623,0.12l-0.191,0.863c-0.192-0.06-0.324-0.096-0.564-0.096c-0.491,0-1.079,0.359-1.475,1.343v3.742h-0.983
		V64.949z"/>
	<path fill="#FFFFFF" d="M380.491,72.241c0.672-0.3,1.08-0.816,1.08-1.463c-0.036,0.012-0.084,0.012-0.12,0.012
		c-0.384,0-0.708-0.24-0.708-0.684c0-0.432,0.336-0.695,0.732-0.695c0.516,0,0.827,0.444,0.827,1.163c0,1.032-0.6,1.835-1.571,2.243
		L380.491,72.241z"/>
	<path fill="#FFFFFF" d="M386.323,62.238h0.983v7.436c0,0.312,0.132,0.432,0.275,0.432c0.061,0,0.108,0,0.216-0.024l0.132,0.744
		c-0.132,0.06-0.3,0.096-0.563,0.096c-0.743,0-1.043-0.468-1.043-1.319V62.238z"/>
	<path fill="#FFFFFF" d="M389.383,64.949h0.815l0.084,0.839h0.036c0.504-0.552,1.115-0.983,1.812-0.983
		c0.888,0,1.367,0.42,1.606,1.115c0.612-0.66,1.212-1.115,1.919-1.115c1.2,0,1.775,0.792,1.775,2.279v3.694h-0.983v-3.562
		c0-1.091-0.348-1.559-1.079-1.559c-0.456,0-0.924,0.3-1.464,0.899v4.222h-0.983v-3.562c0-1.091-0.348-1.559-1.091-1.559
		c-0.432,0-0.924,0.3-1.464,0.899v4.222h-0.983V64.949z"/>
	<path fill="#FFFFFF" d="M401.705,64.805c0.768,0,1.308,0.324,1.703,0.695l-0.491,0.636c-0.348-0.3-0.708-0.516-1.176-0.516
		c-1.055,0-1.822,0.912-1.822,2.255c0,1.331,0.731,2.23,1.799,2.23c0.552,0,1.02-0.275,1.367-0.587l0.443,0.647
		c-0.527,0.468-1.199,0.756-1.895,0.756c-1.547,0-2.734-1.116-2.734-3.046C398.899,65.92,400.206,64.805,401.705,64.805z"/>
	<path fill="#FFFFFF" d="M404.971,65.752h-0.863v-0.744l0.911-0.06l0.12-1.631h0.828v1.631h1.57v0.803h-1.57v3.238
		c0,0.72,0.228,1.127,0.899,1.127c0.203,0,0.468-0.084,0.659-0.156l0.192,0.744c-0.324,0.108-0.72,0.216-1.08,0.216
		c-1.247,0-1.667-0.792-1.667-1.943V65.752z"/>
	<path fill="#FFFFFF" d="M411.485,63.042c-0.216-0.096-0.444-0.144-0.66-0.144c-0.552,0-0.815,0.384-0.815,1.127v0.924h1.235v0.803
		h-1.235v5.025h-0.983v-5.025h-0.791v-0.744l0.791-0.06v-0.924c0-1.187,0.54-1.931,1.703-1.931c0.36,0,0.708,0.084,0.972,0.192
		L411.485,63.042z"/>
	<path fill="#FFFFFF" d="M412.41,72.468c0.66,0,1.08-0.527,1.319-1.247l0.132-0.432l-2.338-5.841h1.02l1.187,3.226
		c0.181,0.504,0.384,1.104,0.564,1.643h0.048c0.168-0.528,0.336-1.127,0.491-1.643l1.044-3.226h0.959l-2.194,6.308
		c-0.408,1.151-1.008,2.027-2.183,2.027c-0.265,0-0.492-0.048-0.684-0.12l0.191-0.78C412.087,72.42,412.267,72.468,412.41,72.468z"
		/>
	<path fill="#FFFFFF" d="M298.783,102.542c-0.216-0.096-0.443-0.144-0.659-0.144c-0.552,0-0.815,0.384-0.815,1.127v0.924h1.235
		v0.803h-1.235v5.025h-0.983v-5.025h-0.792v-0.744l0.792-0.06v-0.924c0-1.187,0.539-1.931,1.703-1.931
		c0.359,0,0.707,0.084,0.971,0.192L298.783,102.542z"/>
	<path fill="#FFFFFF" d="M299.661,101.738h0.983v7.436c0,0.312,0.132,0.432,0.275,0.432c0.061,0,0.108,0,0.216-0.024l0.132,0.744
		c-0.132,0.06-0.3,0.096-0.563,0.096c-0.743,0-1.043-0.468-1.043-1.319V101.738z"/>
	<path fill="#FFFFFF" d="M304.903,104.305c1.487,0,2.327,1.067,2.327,2.734c0,0.204-0.012,0.396-0.036,0.54h-3.934
		c0.072,1.259,0.827,2.051,1.943,2.051c0.551,0,1.019-0.18,1.451-0.456l0.348,0.648c-0.504,0.324-1.128,0.6-1.919,0.6
		c-1.56,0-2.795-1.14-2.795-3.046C302.289,105.468,303.572,104.305,304.903,104.305z M306.367,106.931
		c0-1.188-0.528-1.847-1.439-1.847c-0.815,0-1.56,0.672-1.679,1.847H306.367z"/>
	<path fill="#FFFFFF" d="M310.855,104.305c1.487,0,2.327,1.067,2.327,2.734c0,0.204-0.013,0.396-0.036,0.54h-3.935
		c0.072,1.259,0.828,2.051,1.943,2.051c0.552,0,1.02-0.18,1.451-0.456l0.348,0.648c-0.504,0.324-1.127,0.6-1.919,0.6
		c-1.559,0-2.794-1.14-2.794-3.046C308.241,105.468,309.524,104.305,310.855,104.305z M312.318,106.931
		c0-1.188-0.527-1.847-1.438-1.847c-0.816,0-1.56,0.672-1.68,1.847H312.318z"/>
	<path fill="#FFFFFF" d="M314.624,105.252h-0.863v-0.744l0.911-0.06l0.12-1.631h0.828v1.631h1.57v0.803h-1.57v3.238
		c0,0.72,0.228,1.127,0.899,1.127c0.203,0,0.468-0.084,0.659-0.156l0.192,0.744c-0.324,0.108-0.72,0.216-1.08,0.216
		c-1.247,0-1.667-0.792-1.667-1.943V105.252z"/>
	<path fill="#FFFFFF" d="M318.261,111.741c0.672-0.3,1.079-0.816,1.079-1.463c-0.036,0.012-0.084,0.012-0.12,0.012
		c-0.384,0-0.707-0.24-0.707-0.684c0-0.432,0.336-0.695,0.731-0.695c0.516,0,0.827,0.444,0.827,1.163c0,1.032-0.6,1.835-1.57,2.243
		L318.261,111.741z"/>
	<path fill="#FFFFFF" d="M324.152,102.41h1.188l1.522,4.222l0.563,1.607h0.049l0.552-1.607l1.511-4.222h1.176v7.868h-0.948v-4.33
		c0-0.696,0.084-1.631,0.132-2.327h-0.048l-0.623,1.751l-1.512,4.114h-0.575l-1.512-4.114l-0.623-1.751h-0.048
		c0.048,0.695,0.119,1.631,0.119,2.327v4.33h-0.923V102.41z"/>
	<path fill="#FFFFFF" d="M334.938,104.305c1.487,0,2.327,1.067,2.327,2.734c0,0.204-0.012,0.396-0.036,0.54h-3.934
		c0.072,1.259,0.827,2.051,1.943,2.051c0.551,0,1.019-0.18,1.451-0.456l0.348,0.648c-0.504,0.324-1.128,0.6-1.919,0.6
		c-1.56,0-2.795-1.14-2.795-3.046C332.324,105.468,333.607,104.305,334.938,104.305z M336.402,106.931
		c0-1.188-0.528-1.847-1.439-1.847c-0.815,0-1.56,0.672-1.679,1.847H336.402z"/>
	<path fill="#FFFFFF" d="M338.552,108.958c0.504,0.408,1.02,0.696,1.715,0.696c0.768,0,1.151-0.408,1.151-0.912
		c0-0.6-0.695-0.863-1.331-1.104c-0.827-0.3-1.739-0.695-1.739-1.679c0-0.936,0.744-1.655,2.003-1.655c0.731,0,1.367,0.3,1.812,0.66
		l-0.468,0.624c-0.396-0.3-0.815-0.516-1.331-0.516c-0.732,0-1.067,0.396-1.067,0.839c0,0.54,0.635,0.756,1.295,1.007
		c0.84,0.312,1.775,0.66,1.775,1.763c0,0.948-0.756,1.739-2.135,1.739c-0.828,0-1.619-0.348-2.171-0.804L338.552,108.958z"/>
	<path fill="#FFFFFF" d="M346.002,104.305c1.428,0,2.699,1.115,2.699,3.07c0,1.931-1.271,3.046-2.699,3.046
		c-1.427,0-2.698-1.116-2.698-3.046C343.304,105.42,344.575,104.305,346.002,104.305z M346.002,109.605
		c1.008,0,1.68-0.899,1.68-2.23c0-1.343-0.672-2.255-1.68-2.255c-0.995,0-1.679,0.912-1.679,2.255
		C344.323,108.706,345.007,109.605,346.002,109.605z"/>
	<path fill="#FFFFFF" d="M350.084,108.958c0.503,0.408,1.02,0.696,1.715,0.696c0.768,0,1.151-0.408,1.151-0.912
		c0-0.6-0.695-0.863-1.331-1.104c-0.828-0.3-1.739-0.695-1.739-1.679c0-0.936,0.743-1.655,2.003-1.655c0.731,0,1.367,0.3,1.811,0.66
		l-0.468,0.624c-0.396-0.3-0.815-0.516-1.331-0.516c-0.731,0-1.067,0.396-1.067,0.839c0,0.54,0.636,0.756,1.295,1.007
		c0.84,0.312,1.775,0.66,1.775,1.763c0,0.948-0.756,1.739-2.135,1.739c-0.827,0-1.619-0.348-2.171-0.804L350.084,108.958z"/>
	<path fill="#FFFFFF" d="M354.848,111.741c0.672-0.3,1.08-0.816,1.08-1.463c-0.036,0.012-0.084,0.012-0.12,0.012
		c-0.384,0-0.708-0.24-0.708-0.684c0-0.432,0.336-0.695,0.732-0.695c0.516,0,0.827,0.444,0.827,1.163c0,1.032-0.6,1.835-1.571,2.243
		L354.848,111.741z"/>
	<path fill="#FFFFFF" d="M360.739,102.41h1.008v3.946h0.023l3.274-3.946h1.14l-2.471,2.999l2.843,4.869h-1.116l-2.351-4.09
		l-1.343,1.595v2.495h-1.008V102.41z"/>
	<path fill="#FFFFFF" d="M367.315,104.449h0.996v3.562c0,1.091,0.323,1.559,1.091,1.559c0.6,0,1.02-0.3,1.571-0.983v-4.138h0.983
		v5.829h-0.815l-0.084-0.912h-0.036c-0.539,0.636-1.115,1.056-1.919,1.056c-1.235,0-1.787-0.792-1.787-2.279V104.449z"/>
	<path fill="#FFFFFF" d="M373.928,101.738h0.983v2.327l-0.024,1.055c0.528-0.468,1.176-0.815,1.823-0.815
		c1.511,0,2.314,1.163,2.314,2.962c0,1.991-1.188,3.154-2.519,3.154c-0.539,0-1.151-0.264-1.667-0.72h-0.036l-0.084,0.576h-0.791
		V101.738z M376.338,109.594c0.96,0,1.667-0.875,1.667-2.315c0-1.283-0.432-2.146-1.535-2.146c-0.491,0-1.007,0.276-1.559,0.792
		v3.058C375.427,109.426,375.954,109.594,376.338,109.594z"/>
	<path fill="#FFFFFF" d="M382.77,104.305c1.487,0,2.327,1.067,2.327,2.734c0,0.204-0.012,0.396-0.036,0.54h-3.934
		c0.072,1.259,0.827,2.051,1.943,2.051c0.551,0,1.019-0.18,1.451-0.456l0.348,0.648c-0.504,0.324-1.128,0.6-1.919,0.6
		c-1.56,0-2.795-1.14-2.795-3.046C380.155,105.468,381.438,104.305,382.77,104.305z M384.233,106.931
		c0-1.188-0.528-1.847-1.439-1.847c-0.815,0-1.56,0.672-1.679,1.847H384.233z"/>
	<path fill="#FFFFFF" d="M386.539,104.449h0.815l0.084,1.055h0.036c0.396-0.731,0.996-1.199,1.655-1.199
		c0.252,0,0.432,0.036,0.624,0.12l-0.192,0.863c-0.191-0.06-0.323-0.096-0.563-0.096c-0.492,0-1.079,0.359-1.476,1.343v3.742h-0.983
		V104.449z"/>
	<path fill="#FFFFFF" d="M390.703,104.449h0.815l0.084,0.839h0.036c0.552-0.552,1.151-0.983,1.955-0.983
		c1.223,0,1.774,0.792,1.774,2.279v3.694h-0.983v-3.562c0-1.091-0.336-1.559-1.104-1.559c-0.6,0-1.007,0.312-1.595,0.899v4.222
		h-0.983V104.449z"/>
	<path fill="#FFFFFF" d="M399.449,104.305c1.487,0,2.327,1.067,2.327,2.734c0,0.204-0.012,0.396-0.036,0.54h-3.934
		c0.072,1.259,0.827,2.051,1.943,2.051c0.551,0,1.019-0.18,1.451-0.456l0.348,0.648c-0.504,0.324-1.128,0.6-1.919,0.6
		c-1.56,0-2.795-1.14-2.795-3.046C396.835,105.468,398.118,104.305,399.449,104.305z M400.913,106.931
		c0-1.188-0.528-1.847-1.439-1.847c-0.815,0-1.56,0.672-1.679,1.847H400.913z"/>
	<path fill="#FFFFFF" d="M403.219,105.252h-0.863v-0.744l0.911-0.06l0.12-1.631h0.828v1.631h1.57v0.803h-1.57v3.238
		c0,0.72,0.228,1.127,0.899,1.127c0.203,0,0.468-0.084,0.659-0.156l0.192,0.744c-0.324,0.108-0.72,0.216-1.08,0.216
		c-1.247,0-1.667-0.792-1.667-1.943V105.252z"/>
	<path fill="#FFFFFF" d="M409.17,104.305c1.487,0,2.327,1.067,2.327,2.734c0,0.204-0.013,0.396-0.036,0.54h-3.935
		c0.072,1.259,0.828,2.051,1.943,2.051c0.552,0,1.02-0.18,1.451-0.456l0.348,0.648c-0.504,0.324-1.127,0.6-1.919,0.6
		c-1.559,0-2.794-1.14-2.794-3.046C406.556,105.468,407.839,104.305,409.17,104.305z M410.633,106.931
		c0-1.188-0.527-1.847-1.438-1.847c-0.816,0-1.56,0.672-1.68,1.847H410.633z"/>
	<path fill="#FFFFFF" d="M412.783,108.958c0.503,0.408,1.02,0.696,1.715,0.696c0.768,0,1.151-0.408,1.151-0.912
		c0-0.6-0.695-0.863-1.331-1.104c-0.828-0.3-1.739-0.695-1.739-1.679c0-0.936,0.743-1.655,2.003-1.655c0.731,0,1.367,0.3,1.811,0.66
		l-0.468,0.624c-0.396-0.3-0.815-0.516-1.331-0.516c-0.731,0-1.067,0.396-1.067,0.839c0,0.54,0.636,0.756,1.295,1.007
		c0.84,0.312,1.775,0.66,1.775,1.763c0,0.948-0.756,1.739-2.135,1.739c-0.827,0-1.619-0.348-2.171-0.804L412.783,108.958z"/>
	<path fill="#FFFFFF" d="M293.432,142.042c-0.216-0.096-0.444-0.144-0.66-0.144c-0.552,0-0.815,0.384-0.815,1.127v0.924h1.235v0.803
		h-1.235v5.025h-0.983v-5.025h-0.791v-0.744l0.791-0.06v-0.924c0-1.187,0.54-1.931,1.703-1.931c0.36,0,0.708,0.084,0.972,0.192
		L293.432,142.042z"/>
	<path fill="#FFFFFF" d="M294.309,141.238h0.983v7.436c0,0.312,0.132,0.432,0.276,0.432c0.06,0,0.107,0,0.216-0.024l0.132,0.744
		c-0.132,0.06-0.3,0.096-0.563,0.096c-0.744,0-1.044-0.468-1.044-1.319V141.238z"/>
	<path fill="#FFFFFF" d="M300.667,146.083c0-0.744-0.252-1.463-1.199-1.463c-0.684,0-1.283,0.312-1.739,0.624l-0.396-0.684
		c0.54-0.348,1.355-0.755,2.291-0.755c1.427,0,2.026,0.947,2.026,2.398v3.574h-0.815l-0.084-0.696h-0.023
		c-0.564,0.456-1.212,0.84-1.932,0.84c-0.983,0-1.715-0.612-1.715-1.655C297.081,146.995,298.185,146.359,300.667,146.083z
		 M299.072,149.13c0.563,0,1.031-0.276,1.595-0.78v-1.619c-1.955,0.24-2.614,0.72-2.614,1.463
		C298.053,148.854,298.496,149.13,299.072,149.13z"/>
	<path fill="#FFFFFF" d="M303.513,143.949h0.815l0.084,0.839h0.036c0.552-0.552,1.151-0.983,1.955-0.983
		c1.223,0,1.774,0.792,1.774,2.279v3.694h-0.983v-3.562c0-1.091-0.336-1.559-1.104-1.559c-0.6,0-1.007,0.312-1.595,0.899v4.222
		h-0.983V143.949z"/>
	<path fill="#FFFFFF" d="M310.076,143.949h0.815l0.084,0.839h0.036c0.552-0.552,1.151-0.983,1.955-0.983
		c1.224,0,1.775,0.792,1.775,2.279v3.694h-0.983v-3.562c0-1.091-0.336-1.559-1.104-1.559c-0.6,0-1.008,0.312-1.596,0.899v4.222
		h-0.983V143.949z"/>
	<path fill="#FFFFFF" d="M318.823,143.805c1.487,0,2.327,1.067,2.327,2.734c0,0.204-0.013,0.396-0.036,0.54h-3.935
		c0.072,1.259,0.828,2.051,1.943,2.051c0.552,0,1.02-0.18,1.451-0.456l0.348,0.648c-0.504,0.324-1.127,0.6-1.919,0.6
		c-1.559,0-2.794-1.14-2.794-3.046C316.209,144.968,317.492,143.805,318.823,143.805z M320.286,146.431
		c0-1.188-0.527-1.847-1.438-1.847c-0.816,0-1.56,0.672-1.68,1.847H320.286z"/>
	<path fill="#FFFFFF" d="M322.593,141.238h0.983v7.436c0,0.312,0.132,0.432,0.275,0.432c0.061,0,0.108,0,0.216-0.024l0.132,0.744
		c-0.132,0.06-0.3,0.096-0.563,0.096c-0.743,0-1.043-0.468-1.043-1.319V141.238z"/>
	<path fill="#FFFFFF" d="M325.232,151.241c0.672-0.3,1.079-0.816,1.079-1.463c-0.036,0.012-0.084,0.012-0.12,0.012
		c-0.384,0-0.707-0.24-0.707-0.684c0-0.432,0.336-0.695,0.731-0.695c0.516,0,0.827,0.444,0.827,1.163c0,1.032-0.6,1.835-1.57,2.243
		L325.232,151.241z"/>
	<path fill="#FFFFFF" d="M330.368,143.949h1.008l0.863,3.37c0.132,0.552,0.24,1.079,0.349,1.619h0.048
		c0.132-0.54,0.252-1.08,0.396-1.619l0.899-3.37h0.96l0.911,3.37c0.144,0.552,0.275,1.079,0.407,1.619h0.049
		c0.132-0.54,0.239-1.067,0.359-1.619l0.852-3.37h0.936l-1.56,5.829h-1.199l-0.839-3.13c-0.145-0.552-0.252-1.091-0.396-1.679
		h-0.048c-0.132,0.588-0.252,1.14-0.407,1.691l-0.816,3.118h-1.151L330.368,143.949z"/>
	<path fill="#FFFFFF" d="M341.814,143.805c1.487,0,2.327,1.067,2.327,2.734c0,0.204-0.012,0.396-0.036,0.54h-3.934
		c0.072,1.259,0.827,2.051,1.943,2.051c0.551,0,1.019-0.18,1.451-0.456l0.348,0.648c-0.504,0.324-1.128,0.6-1.919,0.6
		c-1.56,0-2.795-1.14-2.795-3.046C339.2,144.968,340.483,143.805,341.814,143.805z M343.278,146.431
		c0-1.188-0.528-1.847-1.439-1.847c-0.815,0-1.56,0.672-1.679,1.847H343.278z"/>
	<path fill="#FFFFFF" d="M348.714,146.083c0-0.744-0.252-1.463-1.199-1.463c-0.684,0-1.283,0.312-1.739,0.624l-0.396-0.684
		c0.54-0.348,1.355-0.755,2.291-0.755c1.427,0,2.026,0.947,2.026,2.398v3.574h-0.815l-0.084-0.696h-0.023
		c-0.564,0.456-1.212,0.84-1.932,0.84c-0.983,0-1.715-0.612-1.715-1.655C345.128,146.995,346.231,146.359,348.714,146.083z
		 M347.119,149.13c0.563,0,1.031-0.276,1.595-0.78v-1.619c-1.955,0.24-2.614,0.72-2.614,1.463
		C346.1,148.854,346.543,149.13,347.119,149.13z"/>
	<path fill="#FFFFFF" d="M350.721,143.949h1.02l1.103,3.31c0.168,0.576,0.36,1.163,0.54,1.715h0.048
		c0.168-0.552,0.36-1.139,0.528-1.715l1.103-3.31h0.972l-2.062,5.829h-1.151L350.721,143.949z"/>
	<path fill="#FFFFFF" d="M359.299,143.805c1.487,0,2.327,1.067,2.327,2.734c0,0.204-0.013,0.396-0.036,0.54h-3.935
		c0.072,1.259,0.828,2.051,1.943,2.051c0.552,0,1.02-0.18,1.451-0.456l0.348,0.648c-0.504,0.324-1.127,0.6-1.919,0.6
		c-1.559,0-2.794-1.14-2.794-3.046C356.685,144.968,357.968,143.805,359.299,143.805z M360.762,146.431
		c0-1.188-0.527-1.847-1.438-1.847c-0.816,0-1.56,0.672-1.68,1.847H360.762z"/>
	<path fill="#FFFFFF" d="M362.647,151.241c0.672-0.3,1.08-0.816,1.08-1.463c-0.036,0.012-0.084,0.012-0.12,0.012
		c-0.384,0-0.708-0.24-0.708-0.684c0-0.432,0.336-0.695,0.732-0.695c0.516,0,0.827,0.444,0.827,1.163c0,1.032-0.6,1.835-1.571,2.243
		L362.647,151.241z"/>
	<path fill="#FFFFFF" d="M368.479,141.238h0.983v7.436c0,0.312,0.132,0.432,0.276,0.432c0.06,0,0.107,0,0.216-0.024l0.132,0.744
		c-0.132,0.06-0.3,0.096-0.563,0.096c-0.744,0-1.044-0.468-1.044-1.319V141.238z"/>
	<path fill="#FFFFFF" d="M373.806,143.805c1.428,0,2.699,1.115,2.699,3.07c0,1.931-1.271,3.046-2.699,3.046
		c-1.427,0-2.698-1.116-2.698-3.046C371.107,144.92,372.379,143.805,373.806,143.805z M373.806,149.105
		c1.008,0,1.68-0.899,1.68-2.23c0-1.343-0.672-2.255-1.68-2.255c-0.995,0-1.679,0.912-1.679,2.255
		C372.127,148.206,372.811,149.105,373.806,149.105z"/>
	<path fill="#FFFFFF" d="M380.418,143.805c0.768,0,1.308,0.324,1.703,0.695l-0.492,0.636c-0.348-0.3-0.707-0.516-1.175-0.516
		c-1.056,0-1.823,0.912-1.823,2.255c0,1.331,0.731,2.23,1.799,2.23c0.552,0,1.02-0.275,1.367-0.587l0.444,0.647
		c-0.528,0.468-1.199,0.756-1.896,0.756c-1.547,0-2.734-1.116-2.734-3.046C377.611,144.92,378.919,143.805,380.418,143.805z"/>
	<path fill="#FFFFFF" d="M383.516,141.238h0.972v5.781h0.035l2.483-3.07h1.091l-1.955,2.338l2.219,3.49h-1.079l-1.703-2.807
		l-1.091,1.271v1.535h-0.972V141.238z"/>
	<path fill="#FFFFFF" d="M389.3,148.458c0.503,0.408,1.02,0.696,1.715,0.696c0.768,0,1.151-0.408,1.151-0.912
		c0-0.6-0.695-0.863-1.331-1.104c-0.828-0.3-1.739-0.695-1.739-1.679c0-0.936,0.743-1.655,2.003-1.655c0.731,0,1.367,0.3,1.811,0.66
		l-0.468,0.624c-0.396-0.3-0.815-0.516-1.331-0.516c-0.731,0-1.067,0.396-1.067,0.839c0,0.54,0.636,0.756,1.295,1.007
		c0.84,0.312,1.775,0.66,1.775,1.763c0,0.948-0.756,1.739-2.135,1.739c-0.827,0-1.619-0.348-2.171-0.804L389.3,148.458z"/>
	<path fill="#FFFFFF" d="M394.483,143.949h0.815l0.084,0.839h0.036c0.504-0.552,1.115-0.983,1.811-0.983
		c0.888,0,1.367,0.42,1.607,1.115c0.611-0.66,1.211-1.115,1.919-1.115c1.199,0,1.775,0.792,1.775,2.279v3.694h-0.984v-3.562
		c0-1.091-0.348-1.559-1.079-1.559c-0.456,0-0.924,0.3-1.463,0.899v4.222h-0.983v-3.562c0-1.091-0.348-1.559-1.092-1.559
		c-0.432,0-0.923,0.3-1.463,0.899v4.222h-0.983V143.949z"/>
	<path fill="#FFFFFF" d="M404.251,142.114c0-0.384,0.3-0.636,0.684-0.636s0.684,0.252,0.684,0.636c0,0.372-0.3,0.635-0.684,0.635
		S404.251,142.485,404.251,142.114z M404.431,143.949h0.983v5.829h-0.983V143.949z"/>
	<path fill="#FFFFFF" d="M407.551,144.752h-0.863v-0.744l0.911-0.06l0.12-1.631h0.828v1.631h1.57v0.803h-1.57v3.238
		c0,0.72,0.228,1.127,0.899,1.127c0.203,0,0.468-0.084,0.659-0.156l0.192,0.744c-0.324,0.108-0.72,0.216-1.08,0.216
		c-1.247,0-1.667-0.792-1.667-1.943V144.752z"/>
	<path fill="#FFFFFF" d="M411.438,141.238h0.983v2.327l-0.035,1.199c0.551-0.528,1.139-0.959,1.942-0.959
		c1.224,0,1.775,0.792,1.775,2.279v3.694h-0.983v-3.562c0-1.091-0.336-1.559-1.104-1.559c-0.6,0-1.008,0.312-1.596,0.899v4.222
		h-0.983V141.238z"/>
	<path fill="#FFFFFF" d="M299.275,183.305c1.487,0,2.327,1.067,2.327,2.734c0,0.204-0.013,0.396-0.036,0.54h-3.935
		c0.072,1.259,0.828,2.051,1.943,2.051c0.552,0,1.02-0.18,1.451-0.456l0.348,0.648c-0.504,0.324-1.127,0.6-1.919,0.6
		c-1.559,0-2.794-1.14-2.794-3.046C296.661,184.468,297.944,183.305,299.275,183.305z M300.738,185.931
		c0-1.188-0.527-1.847-1.438-1.847c-0.816,0-1.56,0.672-1.68,1.847H300.738z"/>
	<path fill="#FFFFFF" d="M303.044,184.252h-0.863v-0.744l0.911-0.06l0.12-1.631h0.828v1.631h1.57v0.803h-1.57v3.238
		c0,0.72,0.228,1.127,0.899,1.127c0.203,0,0.468-0.084,0.659-0.156l0.192,0.744c-0.324,0.108-0.72,0.216-1.08,0.216
		c-1.247,0-1.667-0.792-1.667-1.943V184.252z"/>
	<path fill="#FFFFFF" d="M309.188,183.305c0.768,0,1.308,0.324,1.703,0.695l-0.492,0.636c-0.348-0.3-0.707-0.516-1.175-0.516
		c-1.056,0-1.823,0.912-1.823,2.255c0,1.331,0.731,2.23,1.799,2.23c0.552,0,1.02-0.275,1.367-0.587l0.444,0.647
		c-0.528,0.468-1.199,0.756-1.896,0.756c-1.547,0-2.734-1.116-2.734-3.046C306.381,184.42,307.688,183.305,309.188,183.305z"/>
	<path fill="#FFFFFF" d="M314.144,183.305c0.672,0,1.115,0.252,1.631,0.671l-0.048-0.995v-2.243h0.995v8.539h-0.815l-0.084-0.684
		h-0.036c-0.455,0.444-1.079,0.828-1.763,0.828c-1.463,0-2.411-1.104-2.411-3.046C311.612,184.48,312.812,183.305,314.144,183.305z
		 M314.239,188.594c0.54,0,1.008-0.264,1.487-0.804v-3.046c-0.492-0.443-0.936-0.611-1.415-0.611c-0.936,0-1.68,0.899-1.68,2.23
		C312.632,187.754,313.22,188.594,314.239,188.594z"/>
	<path fill="#FFFFFF" d="M318.272,190.741c0.672-0.3,1.08-0.816,1.08-1.463c-0.036,0.012-0.084,0.012-0.12,0.012
		c-0.384,0-0.708-0.24-0.708-0.684c0-0.432,0.336-0.695,0.732-0.695c0.516,0,0.827,0.444,0.827,1.163c0,1.032-0.6,1.835-1.571,2.243
		L318.272,190.741z"/>
	<path fill="#FFFFFF" d="M323.625,188.678l4.149-6.429h-3.778v-0.839h5.014v0.588l-4.149,6.428h4.186v0.852h-5.421V188.678z"/>
	<path fill="#FFFFFF" d="M332.526,183.305c1.428,0,2.699,1.115,2.699,3.07c0,1.931-1.271,3.046-2.699,3.046
		c-1.427,0-2.698-1.116-2.698-3.046C329.828,184.42,331.1,183.305,332.526,183.305z M332.526,188.605c1.008,0,1.68-0.899,1.68-2.23
		c0-1.343-0.672-2.255-1.68-2.255c-0.995,0-1.679,0.912-1.679,2.255C330.848,187.706,331.531,188.605,332.526,188.605z"/>
	<path fill="#FFFFFF" d="M339.03,183.305c1.428,0,2.699,1.115,2.699,3.07c0,1.931-1.271,3.046-2.699,3.046
		c-1.427,0-2.698-1.116-2.698-3.046C336.332,184.42,337.604,183.305,339.03,183.305z M339.03,188.605c1.008,0,1.68-0.899,1.68-2.23
		c0-1.343-0.672-2.255-1.68-2.255c-0.995,0-1.679,0.912-1.679,2.255C337.352,187.706,338.035,188.605,339.03,188.605z"/>
	<path fill="#FFFFFF" d="M343.328,181.41h1.007v3.946h0.024l3.274-3.946h1.139l-2.471,2.999l2.843,4.869h-1.115l-2.351-4.09
		l-1.344,1.595v2.495h-1.007V181.41z"/>
	<path fill="#FFFFFF" d="M352.267,183.305c1.487,0,2.327,1.067,2.327,2.734c0,0.204-0.012,0.396-0.036,0.54h-3.934
		c0.072,1.259,0.827,2.051,1.943,2.051c0.551,0,1.019-0.18,1.451-0.456l0.348,0.648c-0.504,0.324-1.128,0.6-1.919,0.6
		c-1.56,0-2.795-1.14-2.795-3.046C349.652,184.468,350.936,183.305,352.267,183.305z M353.73,185.931
		c0-1.188-0.528-1.847-1.439-1.847c-0.815,0-1.56,0.672-1.679,1.847H353.73z"/>
	<path fill="#FFFFFF" d="M358.219,183.305c1.487,0,2.327,1.067,2.327,2.734c0,0.204-0.013,0.396-0.036,0.54h-3.935
		c0.072,1.259,0.828,2.051,1.943,2.051c0.552,0,1.02-0.18,1.451-0.456l0.348,0.648c-0.504,0.324-1.127,0.6-1.919,0.6
		c-1.559,0-2.794-1.14-2.794-3.046C355.604,184.468,356.888,183.305,358.219,183.305z M359.682,185.931
		c0-1.188-0.527-1.847-1.438-1.847c-0.816,0-1.56,0.672-1.68,1.847H359.682z"/>
	<path fill="#FFFFFF" d="M362.971,189.769v1.967h-0.983v-8.287h0.815l0.084,0.671h0.036c0.528-0.444,1.176-0.815,1.859-0.815
		c1.499,0,2.303,1.163,2.303,2.974c0,1.979-1.188,3.143-2.519,3.143c-0.54,0-1.08-0.252-1.619-0.672L362.971,189.769z
		 M364.398,188.594c0.959,0,1.667-0.875,1.667-2.315c0-1.283-0.432-2.146-1.535-2.146c-0.492,0-0.983,0.276-1.56,0.792v3.058
		C363.499,188.426,364.015,188.594,364.398,188.594z"/>
	<path fill="#FFFFFF" d="M370.83,183.305c1.487,0,2.327,1.067,2.327,2.734c0,0.204-0.012,0.396-0.036,0.54h-3.934
		c0.072,1.259,0.827,2.051,1.943,2.051c0.551,0,1.019-0.18,1.451-0.456l0.348,0.648c-0.504,0.324-1.128,0.6-1.919,0.6
		c-1.56,0-2.795-1.14-2.795-3.046C368.216,184.468,369.499,183.305,370.83,183.305z M372.294,185.931
		c0-1.188-0.528-1.847-1.439-1.847c-0.815,0-1.56,0.672-1.679,1.847H372.294z"/>
	<path fill="#FFFFFF" d="M374.6,183.449h0.815l0.084,1.055h0.036c0.396-0.731,0.995-1.199,1.655-1.199
		c0.251,0,0.432,0.036,0.623,0.12l-0.191,0.863c-0.192-0.06-0.324-0.096-0.564-0.096c-0.491,0-1.079,0.359-1.475,1.343v3.742H374.6
		V183.449z"/>
	<path fill="#FFFFFF" d="M377.659,190.741c0.672-0.3,1.08-0.816,1.08-1.463c-0.036,0.012-0.084,0.012-0.12,0.012
		c-0.384,0-0.708-0.24-0.708-0.684c0-0.432,0.336-0.695,0.732-0.695c0.516,0,0.827,0.444,0.827,1.163c0,1.032-0.6,1.835-1.571,2.243
		L377.659,190.741z"/>
	<path fill="#FFFFFF" d="M386.609,181.266c0.936,0,1.68,0.456,2.147,0.972l-0.563,0.636c-0.42-0.444-0.924-0.732-1.571-0.732
		c-1.499,0-2.495,1.224-2.495,3.178c0,1.979,0.947,3.227,2.447,3.227c0.743,0,1.295-0.312,1.799-0.875l0.563,0.611
		c-0.611,0.72-1.392,1.14-2.387,1.14c-1.979,0-3.454-1.511-3.454-4.078C383.096,182.813,384.595,181.266,386.609,181.266z"/>
	<path fill="#FFFFFF" d="M392.55,183.305c1.427,0,2.698,1.115,2.698,3.07c0,1.931-1.271,3.046-2.698,3.046
		c-1.428,0-2.698-1.116-2.698-3.046C389.852,184.42,391.122,183.305,392.55,183.305z M392.55,188.605
		c1.008,0,1.679-0.899,1.679-2.23c0-1.343-0.671-2.255-1.679-2.255c-0.995,0-1.679,0.912-1.679,2.255
		C390.871,187.706,391.555,188.605,392.55,188.605z"/>
	<path fill="#FFFFFF" d="M396.787,183.449h0.815l0.084,0.839h0.036c0.552-0.552,1.151-0.983,1.955-0.983
		c1.223,0,1.774,0.792,1.774,2.279v3.694h-0.983v-3.562c0-1.091-0.336-1.559-1.104-1.559c-0.6,0-1.007,0.312-1.595,0.899v4.222
		h-0.983V183.449z"/>
	<path fill="#FFFFFF" d="M403.195,187.958c0.503,0.408,1.02,0.696,1.715,0.696c0.768,0,1.151-0.408,1.151-0.912
		c0-0.6-0.695-0.863-1.331-1.104c-0.828-0.3-1.739-0.695-1.739-1.679c0-0.936,0.743-1.655,2.003-1.655c0.731,0,1.367,0.3,1.811,0.66
		l-0.468,0.624c-0.396-0.3-0.815-0.516-1.331-0.516c-0.731,0-1.067,0.396-1.067,0.839c0,0.54,0.636,0.756,1.295,1.007
		c0.84,0.312,1.775,0.66,1.775,1.763c0,0.948-0.756,1.739-2.135,1.739c-0.827,0-1.619-0.348-2.171-0.804L403.195,187.958z"/>
	<path fill="#FFFFFF" d="M408.295,183.449h0.996v3.562c0,1.091,0.323,1.559,1.091,1.559c0.6,0,1.02-0.3,1.571-0.983v-4.138h0.983
		v5.829h-0.815l-0.084-0.912h-0.036c-0.539,0.636-1.115,1.056-1.919,1.056c-1.235,0-1.787-0.792-1.787-2.279V183.449z"/>
	<path fill="#FFFFFF" d="M414.907,180.738h0.983v7.436c0,0.312,0.132,0.432,0.275,0.432c0.061,0,0.108,0,0.216-0.024l0.132,0.744
		c-0.132,0.06-0.3,0.096-0.563,0.096c-0.743,0-1.043-0.468-1.043-1.319V180.738z"/>
	<path fill="#FFFFFF" d="M219.706,220.91h1.008v3.946h0.023l3.274-3.946h1.14l-2.471,2.999l2.843,4.869h-1.116l-2.351-4.09
		l-1.343,1.595v2.495h-1.008V220.91z"/>
	<path fill="#FFFFFF" d="M228.645,222.805c1.487,0,2.327,1.067,2.327,2.734c0,0.204-0.012,0.396-0.036,0.54h-3.934
		c0.072,1.259,0.827,2.051,1.943,2.051c0.551,0,1.019-0.18,1.451-0.456l0.348,0.648c-0.504,0.324-1.128,0.6-1.919,0.6
		c-1.56,0-2.795-1.14-2.795-3.046C226.03,223.968,227.313,222.805,228.645,222.805z M230.108,225.431
		c0-1.188-0.528-1.847-1.439-1.847c-0.815,0-1.56,0.672-1.679,1.847H230.108z"/>
	<path fill="#FFFFFF" d="M232.414,222.949h0.815l0.084,1.055h0.036c0.396-0.731,0.995-1.199,1.655-1.199
		c0.251,0,0.432,0.036,0.623,0.12l-0.191,0.863c-0.192-0.06-0.324-0.096-0.564-0.096c-0.491,0-1.079,0.359-1.475,1.343v3.742h-0.983
		V222.949z"/>
	<path fill="#FFFFFF" d="M236.578,222.949h0.815l0.084,0.839h0.036c0.552-0.552,1.151-0.983,1.955-0.983
		c1.223,0,1.774,0.792,1.774,2.279v3.694h-0.983v-3.562c0-1.091-0.336-1.559-1.104-1.559c-0.6,0-1.007,0.312-1.595,0.899v4.222
		h-0.983V222.949z"/>
	<path fill="#FFFFFF" d="M245.324,222.805c1.487,0,2.327,1.067,2.327,2.734c0,0.204-0.012,0.396-0.036,0.54h-3.934
		c0.072,1.259,0.827,2.051,1.943,2.051c0.551,0,1.019-0.18,1.451-0.456l0.348,0.648c-0.504,0.324-1.128,0.6-1.919,0.6
		c-1.56,0-2.795-1.14-2.795-3.046C242.71,223.968,243.993,222.805,245.324,222.805z M246.788,225.431
		c0-1.188-0.528-1.847-1.439-1.847c-0.815,0-1.56,0.672-1.679,1.847H246.788z"/>
	<path fill="#FFFFFF" d="M249.094,220.238h0.983v7.436c0,0.312,0.132,0.432,0.275,0.432c0.061,0,0.108,0,0.216-0.024l0.132,0.744
		c-0.132,0.06-0.3,0.096-0.563,0.096c-0.743,0-1.043-0.468-1.043-1.319V220.238z"/>
	<path fill="#FFFFFF" d="M256.185,225.191h-2.183v-0.744h2.183v-2.339h0.779v2.339h2.183v0.744h-2.183v2.339h-0.779V225.191z"/>
	<path fill="#FFFFFF" d="M263.421,226.69c0-0.468-0.216-0.923-1.031-0.936v-0.624c0.815-0.012,1.031-0.468,1.031-0.923
		c0-0.756-0.108-1.5-0.108-2.327c0-1.224,0.456-1.595,1.392-1.595h0.552v0.576h-0.336c-0.636,0-0.804,0.3-0.804,1.079
		c0,0.696,0.072,1.439,0.072,2.171c0,0.78-0.204,1.164-0.72,1.307v0.048c0.516,0.144,0.72,0.54,0.72,1.307
		c0,0.815-0.072,1.439-0.072,2.171c0,0.779,0.168,1.091,0.804,1.091h0.336v0.564h-0.552c-0.936,0-1.392-0.36-1.392-1.595
		C263.312,228.13,263.421,227.494,263.421,226.69z"/>
	<path fill="#FFFFFF" d="M266.445,227.458c0.504,0.408,1.02,0.696,1.715,0.696c0.768,0,1.151-0.408,1.151-0.912
		c0-0.6-0.695-0.863-1.331-1.104c-0.827-0.3-1.739-0.695-1.739-1.679c0-0.936,0.744-1.655,2.003-1.655c0.731,0,1.367,0.3,1.812,0.66
		l-0.468,0.624c-0.396-0.3-0.815-0.516-1.331-0.516c-0.732,0-1.067,0.396-1.067,0.839c0,0.54,0.635,0.756,1.295,1.007
		c0.84,0.312,1.775,0.66,1.775,1.763c0,0.948-0.756,1.739-2.135,1.739c-0.828,0-1.619-0.348-2.171-0.804L266.445,227.458z"/>
	<path fill="#FFFFFF" d="M271.677,230.468c0.66,0,1.08-0.527,1.319-1.247l0.132-0.432l-2.338-5.841h1.02l1.187,3.226
		c0.181,0.504,0.384,1.104,0.564,1.643h0.048c0.168-0.528,0.336-1.127,0.491-1.643l1.044-3.226h0.959l-2.194,6.308
		c-0.408,1.151-1.008,2.027-2.183,2.027c-0.265,0-0.492-0.048-0.684-0.12l0.191-0.78
		C271.354,230.42,271.533,230.468,271.677,230.468z"/>
	<path fill="#FFFFFF" d="M277.077,227.458c0.504,0.408,1.02,0.696,1.715,0.696c0.768,0,1.151-0.408,1.151-0.912
		c0-0.6-0.695-0.863-1.331-1.104c-0.827-0.3-1.739-0.695-1.739-1.679c0-0.936,0.744-1.655,2.003-1.655c0.731,0,1.367,0.3,1.812,0.66
		l-0.468,0.624c-0.396-0.3-0.815-0.516-1.331-0.516c-0.732,0-1.067,0.396-1.067,0.839c0,0.54,0.635,0.756,1.295,1.007
		c0.84,0.312,1.775,0.66,1.775,1.763c0,0.948-0.756,1.739-2.135,1.739c-0.828,0-1.619-0.348-2.171-0.804L277.077,227.458z"/>
	<path fill="#FFFFFF" d="M282.429,223.752h-0.863v-0.744l0.911-0.06l0.12-1.631h0.828v1.631h1.57v0.803h-1.57v3.238
		c0,0.72,0.228,1.127,0.899,1.127c0.203,0,0.468-0.084,0.659-0.156l0.192,0.744c-0.324,0.108-0.72,0.216-1.08,0.216
		c-1.247,0-1.667-0.792-1.667-1.943V223.752z"/>
	<path fill="#FFFFFF" d="M288.38,222.805c1.487,0,2.327,1.067,2.327,2.734c0,0.204-0.013,0.396-0.036,0.54h-3.935
		c0.072,1.259,0.828,2.051,1.943,2.051c0.552,0,1.02-0.18,1.451-0.456l0.348,0.648c-0.504,0.324-1.127,0.6-1.919,0.6
		c-1.559,0-2.794-1.14-2.794-3.046C285.766,223.968,287.049,222.805,288.38,222.805z M289.843,225.431
		c0-1.188-0.527-1.847-1.438-1.847c-0.816,0-1.56,0.672-1.68,1.847H289.843z"/>
	<path fill="#FFFFFF" d="M292.148,222.949h0.815l0.084,0.839h0.036c0.504-0.552,1.115-0.983,1.812-0.983
		c0.888,0,1.367,0.42,1.606,1.115c0.612-0.66,1.212-1.115,1.919-1.115c1.2,0,1.775,0.792,1.775,2.279v3.694h-0.983v-3.562
		c0-1.091-0.348-1.559-1.079-1.559c-0.456,0-0.924,0.3-1.464,0.899v4.222h-0.983v-3.562c0-1.091-0.348-1.559-1.091-1.559
		c-0.432,0-0.924,0.3-1.464,0.899v4.222h-0.983V222.949z"/>
	<path fill="#FFFFFF" d="M304.208,222.805c0.672,0,1.115,0.252,1.631,0.671l-0.048-0.995v-2.243h0.995v8.539h-0.815l-0.084-0.684
		h-0.036c-0.455,0.444-1.079,0.828-1.763,0.828c-1.463,0-2.411-1.104-2.411-3.046C301.677,223.98,302.877,222.805,304.208,222.805z
		 M304.304,228.094c0.54,0,1.008-0.264,1.487-0.804v-3.046c-0.492-0.443-0.936-0.611-1.415-0.611c-0.936,0-1.68,0.899-1.68,2.23
		C302.696,227.254,303.284,228.094,304.304,228.094z"/>
	<path fill="#FFFFFF" d="M308.337,230.241c0.672-0.3,1.079-0.816,1.079-1.463c-0.036,0.012-0.084,0.012-0.12,0.012
		c-0.384,0-0.707-0.24-0.707-0.684c0-0.432,0.336-0.695,0.731-0.695c0.516,0,0.827,0.444,0.827,1.163c0,1.032-0.6,1.835-1.57,2.243
		L308.337,230.241z"/>
	<path fill="#FFFFFF" d="M316.543,222.805c0.768,0,1.308,0.324,1.703,0.695l-0.491,0.636c-0.348-0.3-0.708-0.516-1.176-0.516
		c-1.055,0-1.822,0.912-1.822,2.255c0,1.331,0.731,2.23,1.799,2.23c0.552,0,1.02-0.275,1.367-0.587l0.443,0.647
		c-0.527,0.468-1.199,0.756-1.895,0.756c-1.547,0-2.734-1.116-2.734-3.046C313.737,223.92,315.044,222.805,316.543,222.805z"/>
	<path fill="#FFFFFF" d="M319.929,228.573v-0.048c-0.288-0.18-0.516-0.492-0.516-0.947c0-0.492,0.336-0.875,0.636-1.08v-0.048
		c-0.384-0.312-0.756-0.875-0.756-1.571c0-1.271,1.008-2.075,2.194-2.075c0.324,0,0.612,0.06,0.828,0.144h2.026v0.755h-1.199
		c0.276,0.264,0.479,0.708,0.479,1.199c0,1.248-0.947,2.027-2.135,2.027c-0.287,0-0.611-0.072-0.875-0.204
		c-0.204,0.18-0.372,0.372-0.372,0.695c0,0.372,0.24,0.636,1.031,0.636h1.128c1.355,0,2.039,0.42,2.039,1.392
		c0,1.079-1.14,2.015-2.951,2.015c-1.427,0-2.41-0.563-2.41-1.571C319.077,229.401,319.4,228.933,319.929,228.573z M321.632,230.78
		c1.115,0,1.847-0.576,1.847-1.188c0-0.54-0.42-0.72-1.175-0.72h-1.008c-0.228,0-0.504-0.024-0.756-0.096
		c-0.42,0.3-0.6,0.647-0.6,0.983C319.94,230.384,320.576,230.78,321.632,230.78z M322.723,224.879c0-0.852-0.552-1.355-1.235-1.355
		s-1.235,0.503-1.235,1.355s0.564,1.391,1.235,1.391C322.159,226.271,322.723,225.731,322.723,224.879z"/>
	<path fill="#FFFFFF" d="M325.568,222.949h0.815l0.084,1.055h0.036c0.396-0.731,0.996-1.199,1.655-1.199
		c0.252,0,0.432,0.036,0.624,0.12l-0.192,0.863c-0.191-0.06-0.323-0.096-0.563-0.096c-0.492,0-1.079,0.359-1.476,1.343v3.742h-0.983
		V222.949z"/>
	<path fill="#FFFFFF" d="M331.879,222.805c1.428,0,2.699,1.115,2.699,3.07c0,1.931-1.271,3.046-2.699,3.046
		c-1.427,0-2.698-1.116-2.698-3.046C329.181,223.92,330.452,222.805,331.879,222.805z M331.879,228.105
		c1.008,0,1.68-0.899,1.68-2.23c0-1.343-0.672-2.255-1.68-2.255c-0.995,0-1.679,0.912-1.679,2.255
		C330.2,227.206,330.884,228.105,331.879,228.105z"/>
	<path fill="#FFFFFF" d="M336.032,222.949h0.996v3.562c0,1.091,0.323,1.559,1.091,1.559c0.6,0,1.02-0.3,1.571-0.983v-4.138h0.983
		v5.829h-0.815l-0.084-0.912h-0.036c-0.539,0.636-1.115,1.056-1.919,1.056c-1.235,0-1.787-0.792-1.787-2.279V222.949z"/>
	<path fill="#FFFFFF" d="M343.628,229.269v1.967h-0.983v-8.287h0.815l0.084,0.671h0.036c0.527-0.444,1.175-0.815,1.858-0.815
		c1.499,0,2.303,1.163,2.303,2.974c0,1.979-1.188,3.143-2.519,3.143c-0.539,0-1.079-0.252-1.619-0.672L343.628,229.269z
		 M345.055,228.094c0.96,0,1.667-0.875,1.667-2.315c0-1.283-0.432-2.146-1.535-2.146c-0.491,0-0.983,0.276-1.559,0.792v3.058
		C344.155,227.926,344.671,228.094,345.055,228.094z"/>
	<path fill="#FFFFFF" d="M349.148,227.458c0.503,0.408,1.02,0.696,1.715,0.696c0.768,0,1.151-0.408,1.151-0.912
		c0-0.6-0.695-0.863-1.331-1.104c-0.828-0.3-1.739-0.695-1.739-1.679c0-0.936,0.743-1.655,2.003-1.655c0.731,0,1.367,0.3,1.811,0.66
		l-0.468,0.624c-0.396-0.3-0.815-0.516-1.331-0.516c-0.731,0-1.067,0.396-1.067,0.839c0,0.54,0.636,0.756,1.295,1.007
		c0.84,0.312,1.775,0.66,1.775,1.763c0,0.948-0.756,1.739-2.135,1.739c-0.827,0-1.619-0.348-2.171-0.804L349.148,227.458z"/>
	<path fill="#FFFFFF" d="M353.912,230.241c0.672-0.3,1.08-0.816,1.08-1.463c-0.036,0.012-0.084,0.012-0.12,0.012
		c-0.384,0-0.708-0.24-0.708-0.684c0-0.432,0.336-0.695,0.732-0.695c0.516,0,0.827,0.444,0.827,1.163c0,1.032-0.6,1.835-1.571,2.243
		L353.912,230.241z"/>
	<path fill="#FFFFFF" d="M359.756,222.949h0.983v6.488c0,1.188-0.432,1.943-1.595,1.943c-0.36,0-0.66-0.072-0.864-0.156l0.204-0.744
		c0.145,0.048,0.348,0.096,0.552,0.096c0.576,0,0.72-0.432,0.72-1.139V222.949z M359.576,221.114c0-0.384,0.3-0.636,0.684-0.636
		c0.372,0,0.672,0.252,0.672,0.636c0,0.372-0.3,0.635-0.672,0.635C359.876,221.749,359.576,221.485,359.576,221.114z"/>
	<path fill="#FFFFFF" d="M366.006,225.083c0-0.744-0.252-1.463-1.199-1.463c-0.684,0-1.283,0.312-1.739,0.624l-0.396-0.684
		c0.54-0.348,1.355-0.755,2.291-0.755c1.427,0,2.026,0.947,2.026,2.398v3.574h-0.815l-0.084-0.696h-0.023
		c-0.564,0.456-1.212,0.84-1.932,0.84c-0.983,0-1.715-0.612-1.715-1.655C362.42,225.995,363.523,225.359,366.006,225.083z
		 M364.411,228.13c0.563,0,1.031-0.276,1.595-0.78v-1.619c-1.955,0.24-2.614,0.72-2.614,1.463
		C363.392,227.854,363.835,228.13,364.411,228.13z"/>
	<path fill="#FFFFFF" d="M368.672,221.114c0-0.384,0.3-0.636,0.684-0.636s0.684,0.252,0.684,0.636c0,0.372-0.3,0.635-0.684,0.635
		S368.672,221.485,368.672,221.114z M368.852,222.949h0.983v5.829h-0.983V222.949z"/>
	<path fill="#FFFFFF" d="M371.804,220.238h0.983v7.436c0,0.312,0.132,0.432,0.275,0.432c0.061,0,0.108,0,0.216-0.024l0.132,0.744
		c-0.132,0.06-0.3,0.096-0.563,0.096c-0.743,0-1.043-0.468-1.043-1.319V220.238z"/>
	<path fill="#FFFFFF" d="M374.708,227.458c0.503,0.408,1.02,0.696,1.715,0.696c0.768,0,1.151-0.408,1.151-0.912
		c0-0.6-0.695-0.863-1.331-1.104c-0.828-0.3-1.739-0.695-1.739-1.679c0-0.936,0.743-1.655,2.003-1.655c0.731,0,1.367,0.3,1.811,0.66
		l-0.468,0.624c-0.396-0.3-0.815-0.516-1.331-0.516c-0.731,0-1.067,0.396-1.067,0.839c0,0.54,0.636,0.756,1.295,1.007
		c0.84,0.312,1.775,0.66,1.775,1.763c0,0.948-0.756,1.739-2.135,1.739c-0.827,0-1.619-0.348-2.171-0.804L374.708,227.458z"/>
	<path fill="#FFFFFF" d="M379.472,230.241c0.672-0.3,1.079-0.816,1.079-1.463c-0.036,0.012-0.084,0.012-0.12,0.012
		c-0.384,0-0.707-0.24-0.707-0.684c0-0.432,0.336-0.695,0.731-0.695c0.516,0,0.827,0.444,0.827,1.163c0,1.032-0.6,1.835-1.57,2.243
		L379.472,230.241z"/>
	<path fill="#FFFFFF" d="M384.691,228.25l3.07-4.498h-2.734v-0.803h3.981v0.527l-3.07,4.498h3.166v0.804h-4.413V228.25z"/>
	<path fill="#FFFFFF" d="M392.55,222.805c1.427,0,2.698,1.115,2.698,3.07c0,1.931-1.271,3.046-2.698,3.046
		c-1.428,0-2.698-1.116-2.698-3.046C389.852,223.92,391.122,222.805,392.55,222.805z M392.55,228.105
		c1.008,0,1.679-0.899,1.679-2.23c0-1.343-0.671-2.255-1.679-2.255c-0.995,0-1.679,0.912-1.679,2.255
		C390.871,227.206,391.555,228.105,392.55,228.105z"/>
	<path fill="#FFFFFF" d="M396.787,222.949h0.815l0.084,0.839h0.036c0.552-0.552,1.151-0.983,1.955-0.983
		c1.223,0,1.774,0.792,1.774,2.279v3.694h-0.983v-3.562c0-1.091-0.336-1.559-1.104-1.559c-0.6,0-1.007,0.312-1.595,0.899v4.222
		h-0.983V222.949z"/>
	<path fill="#FFFFFF" d="M405.533,222.805c1.487,0,2.327,1.067,2.327,2.734c0,0.204-0.012,0.396-0.036,0.54h-3.934
		c0.072,1.259,0.827,2.051,1.943,2.051c0.551,0,1.019-0.18,1.451-0.456l0.348,0.648c-0.504,0.324-1.128,0.6-1.919,0.6
		c-1.56,0-2.795-1.14-2.795-3.046C402.919,223.968,404.202,222.805,405.533,222.805z M406.997,225.431
		c0-1.188-0.528-1.847-1.439-1.847c-0.815,0-1.56,0.672-1.679,1.847H406.997z"/>
	<path fill="#FFFFFF" d="M409.147,227.458c0.503,0.408,1.02,0.696,1.715,0.696c0.768,0,1.151-0.408,1.151-0.912
		c0-0.6-0.695-0.863-1.331-1.104c-0.828-0.3-1.739-0.695-1.739-1.679c0-0.936,0.743-1.655,2.003-1.655c0.731,0,1.367,0.3,1.811,0.66
		l-0.468,0.624c-0.396-0.3-0.815-0.516-1.331-0.516c-0.731,0-1.067,0.396-1.067,0.839c0,0.54,0.636,0.756,1.295,1.007
		c0.84,0.312,1.775,0.66,1.775,1.763c0,0.948-0.756,1.739-2.135,1.739c-0.827,0-1.619-0.348-2.171-0.804L409.147,227.458z"/>
	<path fill="#FFFFFF" d="M414.031,230.037c0.647,0,0.815-0.312,0.815-1.091c0-0.731-0.061-1.355-0.061-2.171
		c0-0.768,0.192-1.163,0.708-1.307v-0.048c-0.516-0.144-0.708-0.527-0.708-1.307c0-0.731,0.061-1.475,0.061-2.171
		c0-0.779-0.168-1.079-0.815-1.079h-0.312v-0.576h0.528c0.959,0,1.403,0.372,1.403,1.595c0,0.827-0.108,1.571-0.108,2.327
		c0,0.456,0.229,0.911,1.031,0.923v0.624c-0.803,0.012-1.031,0.468-1.031,0.936c0,0.804,0.108,1.439,0.108,2.315
		c0,1.235-0.444,1.595-1.403,1.595h-0.528v-0.564H414.031z"/>
	<path fill="#FFFFFF" d="M256.389,260.409h2.339c1.595,0,2.711,0.54,2.711,1.92c0,0.779-0.444,1.475-1.38,1.715v0.048
		c1.151,0.18,1.823,0.804,1.823,1.883c0,1.547-1.224,2.303-2.975,2.303h-2.519V260.409z M258.56,263.768
		c1.331,0,1.896-0.479,1.896-1.355c0-0.851-0.636-1.211-1.848-1.211h-1.211v2.566H258.56z M258.764,267.485
		c1.343,0,2.135-0.491,2.135-1.559c0-0.972-0.756-1.415-2.135-1.415h-1.367v2.974H258.764z"/>
	<path fill="#FFFFFF" d="M266.623,264.583c0-0.743-0.252-1.463-1.199-1.463c-0.684,0-1.283,0.312-1.739,0.624l-0.396-0.684
		c0.54-0.349,1.355-0.756,2.291-0.756c1.427,0,2.026,0.947,2.026,2.398v3.574h-0.815l-0.084-0.695h-0.023
		c-0.564,0.455-1.212,0.839-1.932,0.839c-0.983,0-1.715-0.611-1.715-1.654C263.037,265.495,264.141,264.859,266.623,264.583z
		 M265.028,267.63c0.563,0,1.031-0.276,1.595-0.779v-1.619c-1.955,0.239-2.614,0.719-2.614,1.463
		C264.009,267.354,264.452,267.63,265.028,267.63z"/>
	<path fill="#FFFFFF" d="M269.469,262.448h0.815l0.084,1.056h0.036c0.396-0.731,0.995-1.199,1.655-1.199
		c0.251,0,0.432,0.036,0.623,0.12l-0.191,0.863c-0.192-0.06-0.324-0.096-0.564-0.096c-0.491,0-1.079,0.359-1.475,1.343v3.742h-0.983
		V262.448z"/>
	<path fill="#FFFFFF" d="M275.695,262.305c1.487,0,2.327,1.067,2.327,2.734c0,0.204-0.013,0.396-0.036,0.54h-3.935
		c0.072,1.259,0.828,2.051,1.943,2.051c0.552,0,1.02-0.18,1.451-0.456l0.348,0.647c-0.504,0.324-1.127,0.6-1.919,0.6
		c-1.559,0-2.794-1.139-2.794-3.046S274.364,262.305,275.695,262.305z M277.158,264.932c0-1.188-0.527-1.848-1.438-1.848
		c-0.816,0-1.56,0.672-1.68,1.848H277.158z"/>
	<path fill="#FFFFFF" d="M281.948,260.409h1.188l1.523,4.223l0.563,1.606h0.048l0.552-1.606l1.511-4.223h1.176v7.868h-0.947v-4.33
		c0-0.695,0.084-1.631,0.132-2.326h-0.048l-0.624,1.751l-1.511,4.113h-0.576l-1.511-4.113l-0.624-1.751h-0.048
		c0.048,0.695,0.12,1.631,0.12,2.326v4.33h-0.924V260.409z"/>
	<path fill="#FFFFFF" d="M292.734,262.305c1.487,0,2.327,1.067,2.327,2.734c0,0.204-0.012,0.396-0.036,0.54h-3.934
		c0.072,1.259,0.827,2.051,1.943,2.051c0.551,0,1.019-0.18,1.451-0.456l0.348,0.647c-0.504,0.324-1.128,0.6-1.919,0.6
		c-1.56,0-2.795-1.139-2.795-3.046S291.403,262.305,292.734,262.305z M294.198,264.932c0-1.188-0.528-1.848-1.439-1.848
		c-0.815,0-1.56,0.672-1.679,1.848H294.198z"/>
	<path fill="#FFFFFF" d="M296.504,263.252h-0.863v-0.743l0.911-0.061l0.12-1.631h0.828v1.631h1.57v0.804h-1.57v3.238
		c0,0.72,0.228,1.128,0.899,1.128c0.203,0,0.468-0.084,0.659-0.156l0.192,0.743c-0.324,0.108-0.72,0.216-1.08,0.216
		c-1.247,0-1.667-0.791-1.667-1.942V263.252z"/>
	<path fill="#FFFFFF" d="M303.475,264.583c0-0.743-0.252-1.463-1.199-1.463c-0.685,0-1.284,0.312-1.739,0.624l-0.396-0.684
		c0.54-0.349,1.355-0.756,2.291-0.756c1.428,0,2.027,0.947,2.027,2.398v3.574h-0.815l-0.084-0.695h-0.024
		c-0.563,0.455-1.211,0.839-1.931,0.839c-0.983,0-1.715-0.611-1.715-1.654C299.889,265.495,300.991,264.859,303.475,264.583z
		 M301.879,267.63c0.563,0,1.031-0.276,1.596-0.779v-1.619c-1.955,0.239-2.615,0.719-2.615,1.463
		C300.859,267.354,301.304,267.63,301.879,267.63z"/>
	<path fill="#FFFFFF" d="M306.32,259.738h0.983v7.436c0,0.312,0.132,0.432,0.275,0.432c0.061,0,0.108,0,0.216-0.023l0.132,0.743
		c-0.132,0.061-0.3,0.096-0.563,0.096c-0.743,0-1.043-0.468-1.043-1.319V259.738z"/>
	<path fill="#FFFFFF" d="M308.96,269.74c0.672-0.3,1.08-0.815,1.08-1.463c-0.036,0.012-0.084,0.012-0.12,0.012
		c-0.384,0-0.708-0.239-0.708-0.684c0-0.432,0.336-0.695,0.732-0.695c0.516,0,0.827,0.443,0.827,1.163
		c0,1.031-0.6,1.835-1.571,2.243L308.96,269.74z"/>
	<path fill="#FFFFFF" d="M314.396,264.308c0-2.519,1.391-4.042,3.37-4.042c1.967,0,3.357,1.535,3.357,4.042
		c0,2.53-1.391,4.113-3.357,4.113C315.787,268.421,314.396,266.838,314.396,264.308z M320.093,264.308
		c0-1.955-0.924-3.166-2.326-3.166c-1.416,0-2.339,1.211-2.339,3.166c0,1.967,0.923,3.238,2.339,3.238
		C319.169,267.546,320.093,266.274,320.093,264.308z"/>
	<path fill="#FFFFFF" d="M323.684,268.77v1.967H322.7v-8.288h0.815l0.084,0.672h0.036c0.527-0.443,1.175-0.815,1.858-0.815
		c1.499,0,2.303,1.163,2.303,2.975c0,1.979-1.188,3.142-2.519,3.142c-0.539,0-1.079-0.252-1.619-0.671L323.684,268.77z
		 M325.11,267.594c0.96,0,1.667-0.876,1.667-2.314c0-1.283-0.432-2.147-1.535-2.147c-0.491,0-0.983,0.276-1.559,0.792v3.059
		C324.211,267.426,324.727,267.594,325.11,267.594z"/>
	<path fill="#FFFFFF" d="M331.542,262.305c1.487,0,2.327,1.067,2.327,2.734c0,0.204-0.012,0.396-0.036,0.54h-3.934
		c0.072,1.259,0.827,2.051,1.943,2.051c0.551,0,1.019-0.18,1.451-0.456l0.348,0.647c-0.504,0.324-1.128,0.6-1.919,0.6
		c-1.56,0-2.795-1.139-2.795-3.046S330.211,262.305,331.542,262.305z M333.006,264.932c0-1.188-0.528-1.848-1.439-1.848
		c-0.815,0-1.56,0.672-1.679,1.848H333.006z"/>
	<path fill="#FFFFFF" d="M335.312,262.448h0.815l0.084,0.84h0.036c0.552-0.552,1.151-0.983,1.955-0.983
		c1.224,0,1.775,0.792,1.775,2.278v3.694h-0.983v-3.562c0-1.091-0.336-1.559-1.104-1.559c-0.6,0-1.008,0.312-1.596,0.899v4.222
		h-0.983V262.448z"/>
	<path fill="#FFFFFF" d="M341.972,266.562c0.563,0.588,1.344,0.983,2.171,0.983c1.031,0,1.643-0.516,1.643-1.283
		c0-0.804-0.575-1.056-1.318-1.392l-1.128-0.491c-0.731-0.312-1.595-0.876-1.595-2.027c0-1.199,1.055-2.087,2.482-2.087
		c0.936,0,1.763,0.396,2.314,0.972l-0.527,0.647c-0.479-0.456-1.067-0.743-1.787-0.743c-0.888,0-1.476,0.443-1.476,1.151
		c0,0.755,0.696,1.043,1.308,1.307l1.127,0.48c0.912,0.396,1.619,0.935,1.619,2.099c0,1.247-1.031,2.242-2.687,2.242
		c-1.103,0-2.062-0.455-2.746-1.163L341.972,266.562z"/>
	<path fill="#FFFFFF" d="M348.392,263.252h-0.864v-0.743l0.912-0.061l0.12-1.631h0.827v1.631h1.571v0.804h-1.571v3.238
		c0,0.72,0.228,1.128,0.899,1.128c0.204,0,0.468-0.084,0.66-0.156l0.191,0.743c-0.323,0.108-0.72,0.216-1.079,0.216
		c-1.247,0-1.667-0.791-1.667-1.942V263.252z"/>
	<path fill="#FFFFFF" d="M355.362,264.583c0-0.743-0.252-1.463-1.199-1.463c-0.685,0-1.284,0.312-1.739,0.624l-0.396-0.684
		c0.54-0.349,1.355-0.756,2.291-0.756c1.428,0,2.027,0.947,2.027,2.398v3.574h-0.815l-0.084-0.695h-0.024
		c-0.563,0.455-1.211,0.839-1.931,0.839c-0.983,0-1.715-0.611-1.715-1.654C351.776,265.495,352.879,264.859,355.362,264.583z
		 M353.767,267.63c0.563,0,1.031-0.276,1.596-0.779v-1.619c-1.955,0.239-2.615,0.719-2.615,1.463
		C352.747,267.354,353.191,267.63,353.767,267.63z"/>
	<path fill="#FFFFFF" d="M360.582,262.305c0.768,0,1.308,0.324,1.703,0.695l-0.492,0.636c-0.348-0.3-0.707-0.516-1.175-0.516
		c-1.056,0-1.823,0.911-1.823,2.255c0,1.331,0.731,2.23,1.799,2.23c0.552,0,1.02-0.275,1.367-0.588l0.444,0.648
		c-0.528,0.468-1.199,0.755-1.896,0.755c-1.547,0-2.734-1.115-2.734-3.046C357.775,263.42,359.083,262.305,360.582,262.305z"/>
	<path fill="#FFFFFF" d="M363.68,259.738h0.972v5.78h0.035l2.483-3.07h1.091l-1.955,2.339l2.219,3.49h-1.079l-1.703-2.807
		l-1.091,1.271v1.535h-0.972V259.738z"/>
	<path fill="#FFFFFF" d="M369.367,269.74c0.672-0.3,1.08-0.815,1.08-1.463c-0.036,0.012-0.084,0.012-0.12,0.012
		c-0.384,0-0.708-0.239-0.708-0.684c0-0.432,0.336-0.695,0.732-0.695c0.516,0,0.827,0.443,0.827,1.163
		c0,1.031-0.6,1.835-1.571,2.243L369.367,269.74z"/>
	<path fill="#FFFFFF" d="M378.857,265.879h-2.867l-0.755,2.398h-1.02l2.662-7.868h1.128l2.662,7.868h-1.056L378.857,265.879z
		 M378.605,265.075l-0.372-1.199c-0.276-0.876-0.527-1.739-0.779-2.65h-0.048c-0.252,0.911-0.504,1.774-0.78,2.65l-0.384,1.199
		H378.605z"/>
	<path fill="#FFFFFF" d="M380.911,260.409h1.032l0.827,4.282c0.156,0.852,0.312,1.691,0.468,2.543h0.048
		c0.168-0.852,0.359-1.703,0.552-2.543l1.092-4.282h0.911l1.092,4.282c0.18,0.827,0.371,1.691,0.563,2.543h0.048
		c0.156-0.852,0.3-1.703,0.443-2.543l0.828-4.282h0.971l-1.631,7.868h-1.211l-1.188-4.737c-0.132-0.611-0.264-1.176-0.372-1.787
		h-0.048c-0.132,0.611-0.264,1.176-0.396,1.787l-1.176,4.737h-1.188L380.911,260.409z"/>
	<path fill="#FFFFFF" d="M391.051,266.562c0.563,0.588,1.344,0.983,2.171,0.983c1.031,0,1.643-0.516,1.643-1.283
		c0-0.804-0.575-1.056-1.318-1.392l-1.128-0.491c-0.731-0.312-1.595-0.876-1.595-2.027c0-1.199,1.055-2.087,2.482-2.087
		c0.936,0,1.763,0.396,2.314,0.972l-0.527,0.647c-0.479-0.456-1.067-0.743-1.787-0.743c-0.888,0-1.476,0.443-1.476,1.151
		c0,0.755,0.696,1.043,1.308,1.307l1.127,0.48c0.912,0.396,1.619,0.935,1.619,2.099c0,1.247-1.031,2.242-2.687,2.242
		c-1.103,0-2.062-0.455-2.746-1.163L391.051,266.562z"/>
	<path fill="#FFFFFF" d="M396.883,269.74c0.672-0.3,1.08-0.815,1.08-1.463c-0.036,0.012-0.084,0.012-0.12,0.012
		c-0.384,0-0.708-0.239-0.708-0.684c0-0.432,0.336-0.695,0.732-0.695c0.516,0,0.827,0.443,0.827,1.163
		c0,1.031-0.6,1.835-1.571,2.243L396.883,269.74z"/>
	<path fill="#FFFFFF" d="M402.774,260.409h1.967c2.423,0,3.719,1.403,3.719,3.898c0,2.507-1.296,3.97-3.671,3.97h-2.015V260.409z
		 M404.67,267.462c1.847,0,2.758-1.163,2.758-3.154c0-1.979-0.911-3.082-2.758-3.082h-0.888v6.236H404.67z"/>
	<path fill="#FFFFFF" d="M409.663,264.308c0-2.519,1.392-4.042,3.37-4.042c1.967,0,3.358,1.535,3.358,4.042
		c0,2.53-1.392,4.113-3.358,4.113C411.055,268.421,409.663,266.838,409.663,264.308z M415.36,264.308
		c0-1.955-0.924-3.166-2.327-3.166c-1.415,0-2.339,1.211-2.339,3.166c0,1.967,0.924,3.238,2.339,3.238
		C414.437,267.546,415.36,266.274,415.36,264.308z"/>
</g>
<g>
</g>
<g>
</g>
<g>
</g>
<g>
</g>
<g>
</g>
<g>
</g>
</svg>
